<?xml version="1.0" encoding="utf-8"?>
<!-- Generator: Adobe Illustrator 16.0.0, SVG Export Plug-In . SVG Version: 6.00 Build 0)  -->
<!DOCTYPE svg PUBLIC "-//W3C//DTD SVG 1.1//EN" "http://www.w3.org/Graphics/SVG/1.1/DTD/svg11.dtd">
<svg version="1.1" id="Layer_1" xmlns:svg="http://www.w3.org/2000/svg"
	 xmlns="http://www.w3.org/2000/svg" xmlns:xlink="http://www.w3.org/1999/xlink" x="0px" y="0px" width="16.527px"
	 height="24.082px" viewBox="0 0 16.527 24.082" enable-background="new 0 0 16.527 24.082" xml:space="preserve">
<g id="breadboard">
	<rect id="connector0pin" x="0" y="22.082" fill="none" width="2.16" height="1"/>
	<rect id="connector1pin" x="7.181" y="22.082" fill="none" width="2.155" height="1"/>
	<rect id="connector2pin" x="14.367" y="22.082" fill="none" width="2.16" height="1"/>
	
		<line id="connector0leg" fill="none" stroke="#8C8C8C" stroke-width="2.16" stroke-linecap="round" x1="1.08" y1="24.082" x2="1.08" y2="27.671"/>
	
		<line id="connector1leg" fill="none" stroke="#8C8C8C" stroke-width="2.16" stroke-linecap="round" x1="8.26" y1="24.082" x2="8.263" y2="27.671"/>
	
		<line id="connector2leg" fill="none" stroke="#8C8C8C" stroke-width="2.16" stroke-linecap="round" x1="15.447" y1="24.082" x2="15.447" y2="27.671"/>
	<rect id="rect9506" x="7.177" y="14.73" fill="#8C8C8C" width="2.154" height="9.352"/>
	<path id="path9510" fill="#8C8C8C" d="M3.287,14.73v3.313c0,0.428-0.782,1.063-1.198,1.43c-1.021,0.891-2.088,1.814-2.088,2.988
		v1.619h2.154c0,0,0-1,0-1.211c0-0.52,0.904-1.393,1.35-1.771c0.997-0.871,1.945-1.688,1.945-2.75V14.73H3.287L3.287,14.73z"/>
	<path id="path9514" fill="#8C8C8C" d="M13.22,14.73v3.313c0,0.428,0.777,1.063,1.195,1.43c1.027,0.891,2.089,1.814,2.089,2.988
		v1.619h-2.149c0,0,0-1,0-1.211c0-0.52-0.904-1.393-1.354-1.771c-0.998-0.871-1.94-1.688-1.94-2.75V14.73H13.22L13.22,14.73z"/>
	<rect id="rect9553" x="1.615" y="5.659" fill="#1A1A1A" width="13.278" height="9.069"/>
	<path id="path9555" fill="#141414" d="M13.888,5.659v1.453v8.228v1.844l1.005-2.453l0,0V5.659H13.888z"/>
	<path id="path9557" fill="#242424" d="M2.621,5.659H1.616v9.069l0,0l1.005,2.453v-1.846V7.112V5.659z"/>
	<path id="path9559" fill="#1F1F1F" d="M1.615,5.659L1.615,5.659L2.62,7.112h11.276l1.005-1.453l0,0H1.615z"/>
	<path id="path9561" fill="#141414" d="M3.141,4.086L1.615,5.661h13.278l-1.645-1.56L3.141,4.086z"/>
	<rect id="rect9563" x="2.621" y="7.112" width="11.276" height="10.07"/>
	<g>
		<g>
			
				<path fill="#666666" stroke="#666666" stroke-width="0.2" stroke-linecap="round" stroke-linejoin="round" stroke-miterlimit="10" d="
				M7.179,11.04H6.998v-0.666H6.348v0.666H6.166V9.612h0.183v0.602h0.649V9.612H7.18L7.179,11.04L7.179,11.04z"/>
			
				<path fill="#666666" stroke="#666666" stroke-width="0.2" stroke-linecap="round" stroke-linejoin="round" stroke-miterlimit="10" d="
				M8.404,11.04l-0.156-0.442H7.716L7.557,11.04H7.374l0.524-1.434h0.166L8.59,11.04H8.404z M8.19,10.437l-0.146-0.414
				C8.041,10.011,8.036,9.997,8.031,9.98S8.02,9.944,8.014,9.925c-0.007-0.019-0.013-0.04-0.019-0.061
				C7.991,9.843,7.986,9.822,7.98,9.802c-0.004,0.02-0.01,0.041-0.016,0.063C7.96,9.885,7.953,9.906,7.947,9.927
				C7.941,9.946,7.935,9.964,7.93,9.981c-0.006,0.016-0.011,0.03-0.015,0.041l-0.142,0.414L8.19,10.437L8.19,10.437z"/>
			
				<path fill="#666666" stroke="#666666" stroke-width="0.2" stroke-linecap="round" stroke-linejoin="round" stroke-miterlimit="10" d="
				M8.784,11.04V9.612h0.182v1.266h0.561v0.162H8.784z"/>
			
				<path fill="#666666" stroke="#666666" stroke-width="0.2" stroke-linecap="round" stroke-linejoin="round" stroke-miterlimit="10" d="
				M9.766,11.04V9.612h0.182v1.266h0.56v0.162H9.766z"/>
		</g>
	</g>
	<g enable-background="new    ">
		<g>
			
				<path fill="#666666" stroke="#666666" stroke-width="0.2" stroke-linecap="round" stroke-linejoin="round" stroke-miterlimit="10" d="
				M5.583,14.059c0,0.063-0.011,0.119-0.034,0.168c-0.021,0.051-0.055,0.094-0.096,0.127c-0.041,0.035-0.092,0.062-0.152,0.078
				c-0.06,0.02-0.127,0.027-0.201,0.027c-0.072,0-0.141-0.006-0.203-0.018c-0.063-0.012-0.115-0.027-0.158-0.051v-0.174
				c0.021,0.012,0.047,0.021,0.076,0.03c0.027,0.011,0.058,0.021,0.089,0.026C4.934,14.281,4.967,14.289,5,14.295
				c0.033,0.004,0.066,0.007,0.1,0.007c0.104,0,0.181-0.02,0.23-0.059s0.075-0.095,0.075-0.168c0-0.035-0.005-0.065-0.014-0.093
				c-0.01-0.026-0.026-0.049-0.051-0.07c-0.023-0.021-0.056-0.043-0.095-0.064c-0.04-0.02-0.09-0.041-0.149-0.065
				c-0.059-0.022-0.108-0.048-0.151-0.074c-0.042-0.026-0.078-0.058-0.105-0.092c-0.026-0.034-0.05-0.073-0.063-0.116
				s-0.021-0.092-0.021-0.146c0-0.059,0.011-0.108,0.031-0.153c0.021-0.045,0.05-0.083,0.088-0.114
				c0.038-0.029,0.083-0.054,0.135-0.069c0.053-0.017,0.11-0.024,0.174-0.024c0.078,0,0.146,0.007,0.209,0.022
				c0.062,0.014,0.116,0.032,0.165,0.056l-0.065,0.152c-0.042-0.02-0.09-0.035-0.144-0.051c-0.055-0.014-0.109-0.021-0.167-0.021
				c-0.08,0-0.142,0.019-0.186,0.056c-0.043,0.036-0.064,0.086-0.064,0.148c0,0.037,0.005,0.068,0.015,0.096
				s0.026,0.052,0.049,0.074c0.023,0.021,0.053,0.042,0.09,0.061c0.038,0.021,0.083,0.04,0.139,0.062
				c0.059,0.023,0.11,0.049,0.155,0.072c0.045,0.024,0.082,0.053,0.112,0.084s0.053,0.067,0.068,0.108
				C5.575,13.954,5.583,14.002,5.583,14.059z"/>
			
				<path fill="#666666" stroke="#666666" stroke-width="0.2" stroke-linecap="round" stroke-linejoin="round" stroke-miterlimit="10" d="
				M6.61,14.439H5.869v-1.429H6.61v0.16H6.05v0.44h0.522v0.158H6.051v0.508h0.561L6.61,14.439L6.61,14.439z"/>
			
				<path fill="#666666" stroke="#666666" stroke-width="0.2" stroke-linecap="round" stroke-linejoin="round" stroke-miterlimit="10" d="
				M7.994,14.439h-0.21l-0.702-1.183H7.074c0.004,0.051,0.007,0.101,0.01,0.149c0.002,0.042,0.005,0.087,0.006,0.133
				s0.002,0.088,0.002,0.125v0.773H6.925V13.01h0.208l0.699,1.176h0.007c-0.002-0.05-0.004-0.099-0.007-0.146
				c0-0.021-0.001-0.042-0.002-0.063s-0.002-0.043-0.003-0.064s-0.001-0.043-0.002-0.063c-0.001-0.021,0-0.039,0-0.057v-0.78h0.17
				L7.994,14.439L7.994,14.439z"/>
			
				<path fill="#666666" stroke="#666666" stroke-width="0.2" stroke-linecap="round" stroke-linejoin="round" stroke-miterlimit="10" d="
				M9.135,14.059c0,0.063-0.012,0.119-0.032,0.168c-0.023,0.051-0.056,0.094-0.098,0.127c-0.042,0.035-0.093,0.062-0.151,0.078
				c-0.061,0.02-0.127,0.027-0.202,0.027c-0.072,0-0.141-0.006-0.203-0.018c-0.063-0.012-0.115-0.027-0.158-0.051v-0.174
				c0.022,0.012,0.047,0.021,0.076,0.03c0.028,0.011,0.058,0.021,0.089,0.026c0.031,0.008,0.063,0.015,0.097,0.021
				c0.033,0.004,0.066,0.007,0.1,0.007c0.104,0,0.182-0.02,0.229-0.059c0.052-0.039,0.075-0.096,0.075-0.168
				c0-0.035-0.005-0.065-0.015-0.092c-0.009-0.026-0.025-0.051-0.049-0.071c-0.024-0.022-0.058-0.043-0.097-0.063
				c-0.04-0.021-0.09-0.043-0.149-0.066c-0.059-0.022-0.108-0.049-0.151-0.074c-0.042-0.027-0.078-0.059-0.104-0.092
				c-0.027-0.034-0.049-0.072-0.063-0.115s-0.02-0.092-0.02-0.146c0-0.059,0.01-0.108,0.03-0.153
				c0.021-0.045,0.051-0.083,0.088-0.114c0.038-0.029,0.083-0.054,0.136-0.069c0.052-0.017,0.109-0.024,0.173-0.024
				c0.078,0,0.146,0.007,0.209,0.022c0.063,0.014,0.117,0.032,0.165,0.056l-0.065,0.152c-0.043-0.02-0.09-0.035-0.145-0.051
				c-0.053-0.014-0.109-0.021-0.166-0.021c-0.08,0-0.142,0.019-0.186,0.056c-0.043,0.036-0.064,0.086-0.064,0.148
				c0,0.037,0.005,0.068,0.015,0.096s0.026,0.052,0.049,0.074c0.023,0.021,0.054,0.042,0.091,0.061
				c0.037,0.021,0.083,0.04,0.138,0.062c0.06,0.023,0.11,0.049,0.155,0.072c0.045,0.024,0.082,0.053,0.111,0.084
				c0.03,0.031,0.054,0.067,0.067,0.108C9.127,13.953,9.135,14.002,9.135,14.059z"/>
			
				<path fill="#666666" stroke="#666666" stroke-width="0.2" stroke-linecap="round" stroke-linejoin="round" stroke-miterlimit="10" d="
				M10.587,13.725c0,0.109-0.013,0.209-0.04,0.301c-0.024,0.091-0.063,0.168-0.116,0.231c-0.054,0.063-0.117,0.114-0.193,0.149
				c-0.078,0.035-0.166,0.053-0.269,0.053c-0.104,0-0.197-0.018-0.274-0.053c-0.078-0.035-0.144-0.086-0.193-0.149
				c-0.052-0.063-0.09-0.142-0.113-0.233c-0.024-0.09-0.037-0.19-0.037-0.301c0-0.111,0.013-0.212,0.037-0.303
				c0.023-0.09,0.063-0.167,0.113-0.229c0.051-0.063,0.116-0.113,0.194-0.148c0.078-0.034,0.171-0.052,0.276-0.052
				c0.102,0,0.188,0.018,0.266,0.052c0.077,0.035,0.141,0.085,0.193,0.148s0.092,0.142,0.116,0.231
				C10.574,13.513,10.587,13.611,10.587,13.725z M9.541,13.725c0,0.088,0.008,0.168,0.025,0.24c0.018,0.07,0.043,0.131,0.078,0.182
				c0.034,0.049,0.078,0.088,0.133,0.113c0.053,0.027,0.117,0.04,0.19,0.04c0.074,0,0.14-0.013,0.191-0.04
				c0.055-0.025,0.099-0.064,0.133-0.113c0.035-0.051,0.062-0.11,0.077-0.182c0.017-0.072,0.024-0.152,0.024-0.24
				c0-0.091-0.009-0.17-0.024-0.241s-0.042-0.131-0.076-0.18c-0.034-0.051-0.079-0.089-0.132-0.113
				c-0.053-0.027-0.117-0.04-0.19-0.04c-0.074,0-0.14,0.013-0.192,0.04c-0.054,0.024-0.099,0.063-0.134,0.113
				c-0.035,0.049-0.062,0.107-0.078,0.18C9.549,13.555,9.541,13.634,9.541,13.725z"/>
			
				<path fill="#666666" stroke="#666666" stroke-width="0.2" stroke-linecap="round" stroke-linejoin="round" stroke-miterlimit="10" d="
				M11.087,13.85v0.59h-0.182v-1.427h0.348c0.173,0,0.303,0.032,0.385,0.101c0.081,0.068,0.123,0.169,0.123,0.305
				c0,0.058-0.008,0.106-0.023,0.148c-0.016,0.041-0.037,0.078-0.063,0.107c-0.026,0.031-0.057,0.057-0.091,0.076
				s-0.068,0.037-0.104,0.05l0.389,0.64h-0.214l-0.343-0.59H11.087z M11.087,13.695h0.16c0.06,0,0.108-0.006,0.149-0.019
				c0.041-0.011,0.074-0.026,0.102-0.051c0.025-0.021,0.045-0.05,0.058-0.084c0.013-0.033,0.019-0.071,0.019-0.117
				c0-0.047-0.007-0.087-0.021-0.118c-0.014-0.032-0.033-0.061-0.062-0.08c-0.026-0.021-0.061-0.036-0.102-0.045
				c-0.042-0.011-0.092-0.016-0.147-0.016h-0.156V13.695z"/>
		</g>
	</g>
</g>
</svg>
