<?xml version="1.0" encoding="utf-8"?>
<!-- Generator: Adobe Illustrator 16.0.0, SVG Export Plug-In . SVG Version: 6.00 Build 0)  -->
<!DOCTYPE svg PUBLIC "-//W3C//DTD SVG 1.1//EN" "http://www.w3.org/Graphics/SVG/1.1/DTD/svg11.dtd">
<svg version="1.1" id="Layer_1" xmlns:serif="http://www.serif.com/"
	 xmlns="http://www.w3.org/2000/svg" xmlns:xlink="http://www.w3.org/1999/xlink" x="0px" y="0px" width="24.516px"
	 height="44.07px" viewBox="0 0 24.516 44.07" enable-background="new 0 0 24.516 44.07" xml:space="preserve">
<g id="schematic">
	<g id="Channel">
		
			<rect x="7.777" y="7.635" fill="none" stroke="#000000" stroke-width="0.87" stroke-linecap="round" stroke-miterlimit="1.5" width="16.446" height="28.802"/>
		<path id="connector2pin" fill="none" stroke="#787878" stroke-width="0.87" stroke-linecap="round" stroke-miterlimit="1.5" d="
			M22.176,36.436v7.199"/>
		<path id="connector1pin" fill="none" stroke="#787878" stroke-width="0.87" stroke-linecap="round" stroke-miterlimit="1.5" d="
			M22.137,7.635v-7.2"/>
		<path id="connector0pin" fill="none" stroke="#787878" stroke-width="0.87" stroke-linecap="round" stroke-miterlimit="1.5" d="
			M0.577,22.035h7.2"/>
		<circle id="connector2terminal" fill="none" cx="22.176" cy="43.635" r="0.284"/>
		<circle id="connector1terminal" fill="none" cx="22.176" cy="0.435" r="0.284"/>
		<circle id="connector0terminal" fill="none" cx="0.577" cy="22.035" r="0.283"/>
	</g>
	<text transform="matrix(1 0 0 1 19.2229 40.0374)" fill="#8C8C8C" font-family="'DroidSans'" font-size="3.125">3</text>
	<text transform="matrix(1 0 0 1 19.2229 6.1829)" fill="#8C8C8C" font-family="'DroidSans'" font-size="3.125">2</text>
	<text transform="matrix(1 0 0 1 4.657 20.7766)" fill="#8C8C8C" font-family="'DroidSans'" font-size="3.125">1</text>
	<g>
		<g>
			<path d="M16.221,14.292v-0.363h1.332v-1.301h-1.332v-0.364h2.855v0.363h-1.203v1.301h1.203v0.363L16.221,14.292L16.221,14.292z"
				/>
			<path d="M16.221,16.229l0.297-0.071v-0.017c-0.059-0.043-0.107-0.086-0.15-0.129c-0.041-0.043-0.076-0.09-0.104-0.141
				s-0.049-0.107-0.061-0.17c-0.014-0.063-0.021-0.135-0.021-0.217c0-0.091,0.014-0.173,0.039-0.248
				c0.025-0.076,0.064-0.142,0.117-0.196s0.119-0.099,0.199-0.13s0.174-0.047,0.283-0.047c0.215,0,0.379,0.074,0.492,0.226
				c0.115,0.15,0.178,0.379,0.188,0.688l0.014,0.358h0.137c0.088,0,0.158-0.009,0.219-0.028c0.059-0.019,0.104-0.046,0.141-0.081
				c0.035-0.036,0.063-0.08,0.078-0.134c0.014-0.053,0.023-0.112,0.023-0.181c0-0.108-0.018-0.208-0.049-0.302
				c-0.029-0.095-0.068-0.184-0.111-0.27l0.268-0.125c0.051,0.097,0.096,0.204,0.133,0.322c0.035,0.119,0.055,0.243,0.055,0.373
				c0,0.133-0.014,0.248-0.041,0.345c-0.025,0.098-0.068,0.177-0.127,0.24s-0.131,0.11-0.221,0.142
				c-0.09,0.032-0.199,0.048-0.326,0.048h-1.469v-0.256H16.221z M16.471,15.577c0,0.08,0.014,0.152,0.037,0.221
				s0.063,0.126,0.111,0.176c0.049,0.051,0.113,0.088,0.189,0.116s0.166,0.042,0.27,0.042h0.191l-0.014-0.279
				c-0.006-0.116-0.018-0.215-0.039-0.295c-0.02-0.08-0.049-0.143-0.086-0.189s-0.082-0.082-0.135-0.104
				c-0.053-0.021-0.113-0.03-0.18-0.03c-0.119,0-0.207,0.031-0.264,0.095C16.496,15.392,16.471,15.474,16.471,15.577z"/>
			<path d="M16.221,17.499v-0.355h3.039v0.355H16.221z"/>
			<path d="M16.221,18.534v-0.355h3.039v0.355H16.221z"/>
			<path d="M16.987,21.806c-0.127,0-0.24-0.021-0.34-0.066s-0.184-0.109-0.254-0.192c-0.068-0.083-0.119-0.185-0.156-0.305
				c-0.035-0.12-0.055-0.254-0.055-0.404c0-0.145,0.014-0.28,0.035-0.405s0.057-0.23,0.102-0.314h0.348
				c-0.021,0.044-0.041,0.095-0.063,0.15c-0.021,0.057-0.037,0.116-0.055,0.18c-0.016,0.063-0.027,0.127-0.037,0.192
				c-0.01,0.066-0.016,0.132-0.016,0.197c0,0.208,0.039,0.362,0.117,0.462c0.078,0.101,0.189,0.149,0.336,0.149
				c0.07,0,0.133-0.01,0.184-0.028c0.053-0.019,0.102-0.052,0.145-0.1c0.045-0.049,0.086-0.111,0.127-0.19s0.086-0.18,0.135-0.301
				c0.045-0.116,0.096-0.216,0.148-0.302s0.113-0.156,0.184-0.211c0.068-0.056,0.145-0.097,0.229-0.123
				c0.086-0.027,0.186-0.04,0.293-0.04c0.115,0,0.219,0.021,0.309,0.063s0.164,0.101,0.227,0.176
				c0.063,0.076,0.109,0.166,0.143,0.271c0.031,0.104,0.049,0.22,0.049,0.347c0,0.155-0.016,0.294-0.045,0.418
				s-0.066,0.234-0.111,0.33l-0.305-0.131c0.037-0.084,0.07-0.181,0.098-0.288c0.029-0.106,0.043-0.218,0.043-0.333
				c0-0.159-0.037-0.282-0.111-0.369c-0.072-0.087-0.172-0.131-0.297-0.131c-0.072,0-0.139,0.01-0.191,0.029
				c-0.055,0.02-0.104,0.052-0.146,0.098c-0.043,0.045-0.084,0.106-0.123,0.181c-0.037,0.075-0.078,0.167-0.121,0.276
				c-0.047,0.119-0.096,0.222-0.145,0.313c-0.049,0.09-0.105,0.164-0.168,0.224c-0.064,0.06-0.135,0.104-0.217,0.136
				S17.098,21.806,16.987,21.806z"/>
			<path d="M16.182,23.177c0-0.144,0.025-0.273,0.072-0.393c0.049-0.119,0.119-0.221,0.211-0.307
				c0.094-0.085,0.207-0.15,0.344-0.197c0.139-0.047,0.293-0.07,0.471-0.07s0.336,0.021,0.475,0.064
				c0.139,0.043,0.256,0.104,0.354,0.182s0.172,0.171,0.223,0.28c0.051,0.108,0.076,0.229,0.076,0.359
				c0,0.129-0.023,0.245-0.07,0.349c-0.045,0.103-0.111,0.189-0.195,0.262s-0.184,0.126-0.301,0.165
				c-0.119,0.039-0.25,0.058-0.393,0.058h-0.221v-1.352c-0.252,0.007-0.438,0.06-0.555,0.159c-0.119,0.099-0.178,0.248-0.178,0.443
				c0,0.066,0.002,0.128,0.01,0.186c0.006,0.057,0.016,0.11,0.027,0.164c0.012,0.053,0.027,0.104,0.047,0.152
				s0.041,0.101,0.063,0.15h-0.314c-0.025-0.052-0.047-0.104-0.064-0.153s-0.033-0.102-0.045-0.153
				c-0.012-0.053-0.021-0.107-0.025-0.164C16.188,23.304,16.182,23.243,16.182,23.177z M18.112,23.089
				c0-0.147-0.053-0.267-0.152-0.353c-0.102-0.086-0.25-0.138-0.443-0.151v0.961c0.088,0,0.17-0.009,0.242-0.026
				c0.074-0.017,0.137-0.045,0.189-0.082c0.051-0.036,0.092-0.084,0.121-0.142C18.096,23.239,18.112,23.17,18.112,23.089z"/>
			<path d="M16.221,25.809h1.381c0.172,0,0.299-0.033,0.383-0.103s0.127-0.176,0.127-0.321c0-0.104-0.02-0.193-0.053-0.266
				c-0.033-0.071-0.084-0.13-0.148-0.173c-0.066-0.043-0.148-0.074-0.244-0.095c-0.096-0.02-0.207-0.027-0.332-0.027h-1.111v-0.355
				h2.145v0.289l-0.289,0.051v0.021c0.057,0.032,0.104,0.071,0.145,0.116s0.076,0.094,0.105,0.146
				c0.027,0.053,0.047,0.11,0.061,0.17c0.014,0.061,0.02,0.121,0.02,0.185c0,0.237-0.063,0.417-0.188,0.538
				c-0.125,0.12-0.322,0.181-0.596,0.181h-1.4v-0.356H16.221z"/>
			<path d="M16.809,28.109c-0.104,0-0.193-0.02-0.271-0.058s-0.145-0.093-0.197-0.163c-0.051-0.069-0.092-0.156-0.117-0.257
				s-0.039-0.213-0.039-0.338c0-0.142,0.012-0.264,0.033-0.365c0.023-0.101,0.059-0.189,0.102-0.268h0.324
				c-0.021,0.04-0.041,0.085-0.063,0.135s-0.037,0.102-0.053,0.156c-0.018,0.054-0.029,0.109-0.039,0.169
				c-0.01,0.059-0.016,0.115-0.016,0.173c0,0.085,0.008,0.157,0.021,0.216c0.014,0.06,0.035,0.107,0.063,0.146
				s0.061,0.063,0.098,0.081c0.039,0.017,0.082,0.024,0.129,0.024c0.039,0,0.076-0.007,0.107-0.02
				c0.033-0.014,0.064-0.036,0.098-0.071s0.064-0.082,0.098-0.142c0.033-0.061,0.068-0.138,0.109-0.23
				c0.041-0.094,0.08-0.179,0.117-0.253c0.039-0.074,0.082-0.139,0.133-0.19c0.049-0.051,0.104-0.093,0.166-0.119
				c0.063-0.027,0.139-0.042,0.227-0.042c0.092,0,0.172,0.019,0.242,0.054s0.131,0.086,0.18,0.15
				c0.047,0.065,0.084,0.145,0.109,0.234c0.023,0.091,0.037,0.192,0.037,0.305c0,0.126-0.016,0.241-0.041,0.348
				c-0.027,0.105-0.064,0.204-0.107,0.298l-0.287-0.123c0.037-0.085,0.07-0.171,0.098-0.261c0.027-0.091,0.043-0.181,0.043-0.272
				c0-0.133-0.021-0.23-0.066-0.295c-0.043-0.063-0.104-0.096-0.186-0.096c-0.045,0-0.086,0.007-0.119,0.021
				c-0.033,0.016-0.066,0.041-0.096,0.077s-0.061,0.085-0.092,0.146c-0.029,0.061-0.064,0.138-0.102,0.229
				c-0.039,0.094-0.078,0.177-0.117,0.251s-0.084,0.137-0.133,0.188c-0.049,0.051-0.104,0.092-0.166,0.119
				C16.971,28.093,16.897,28.109,16.809,28.109z"/>
			<path d="M17.299,30.378c-0.18,0-0.338-0.022-0.477-0.065s-0.254-0.104-0.35-0.188s-0.166-0.18-0.217-0.296
				c-0.049-0.116-0.074-0.246-0.074-0.392c0-0.134,0.025-0.258,0.074-0.37c0.051-0.113,0.121-0.213,0.217-0.295
				c0.096-0.081,0.211-0.146,0.35-0.192s0.297-0.069,0.477-0.069c0.178,0,0.334,0.022,0.471,0.065
				c0.139,0.043,0.254,0.104,0.348,0.187c0.096,0.081,0.166,0.18,0.215,0.296c0.049,0.117,0.074,0.247,0.074,0.393
				c0,0.134-0.025,0.258-0.074,0.371c-0.049,0.112-0.121,0.211-0.215,0.293s-0.209,0.146-0.348,0.192S17.475,30.378,17.299,30.378z
				 M17.299,28.878c-0.271,0-0.477,0.044-0.615,0.134c-0.137,0.09-0.205,0.234-0.205,0.436c0,0.2,0.068,0.345,0.205,0.433
				c0.139,0.088,0.344,0.132,0.615,0.132s0.477-0.044,0.609-0.134c0.135-0.09,0.203-0.234,0.203-0.435
				c0-0.201-0.068-0.346-0.203-0.434S17.571,28.878,17.299,28.878z"/>
			<path d="M18.406,31.866c0,0.038-0.002,0.08-0.006,0.127s-0.01,0.087-0.016,0.121l-0.328-0.047
				c0.006-0.036,0.014-0.073,0.018-0.112s0.008-0.074,0.008-0.108c0-0.082-0.02-0.157-0.051-0.225
				c-0.033-0.068-0.08-0.126-0.143-0.175c-0.063-0.05-0.137-0.086-0.223-0.113c-0.088-0.027-0.184-0.04-0.289-0.04h-1.156v-0.355
				h2.146v0.289l-0.395,0.043v0.017c0.057,0.032,0.109,0.066,0.162,0.104s0.1,0.078,0.139,0.125s0.07,0.099,0.096,0.155
				C18.393,31.728,18.406,31.793,18.406,31.866z"/>
		</g>
	</g>
</g>
</svg>
