<?xml version='1.0' encoding='UTF-8' standalone='no'?>
<svg xmlns="http://www.w3.org/2000/svg" width="0.55118114in" y="0in" id="svg2" gorn="0" viewBox="0 0 551.18111 1614.3394" height="1.6143395in"  x="0in" version="1.2">
    <metadata id="metadata24" >
        <rdf:RDF xmlns:rdf="http://www.w3.org/1999/02/22-rdf-syntax-ns#">
            <cc:Work rdf:about="" xmlns:rdf="http://www.w3.org/1999/02/22-rdf-syntax-ns#" xmlns:cc="http://creativecommons.org/ns#">
                <dc:format xmlns:dc="http://purl.org/dc/elements/1.1/">image/svg+xml</dc:format>
                <dc:type rdf:resource="http://purl.org/dc/dcmitype/StillImage" xmlns:rdf="http://www.w3.org/1999/02/22-rdf-syntax-ns#" xmlns:dc="http://purl.org/dc/elements/1.1/"/>
            </cc:Work>
        </rdf:RDF>
    </metadata>
    <defs id="defs22" />
    <desc id="desc4" >
        <referenceFile >fc-51_85d98481ce3be6f2e9b641181c0f798b_1_breadboard.svg</referenceFile>
    </desc>
    <path id="path13" gorn="0.3" stroke-width="8.20618" fill="#8c8c8c"  d="m 359.48637,426.83938 c -5.23846,0 -9.48638,-4.34899 -9.48638,-9.71208 V 257.11202 c 0,-5.36309 4.24792,-9.71208 9.48638,-9.71208 5.23847,0 9.48639,4.34899 9.48639,9.71208 V 417.1273 c 0,5.36309 -4.24792,9.71208 -9.48639,9.71208 z"/>
    <path id="path16" gorn="0.4" stroke-width="8.18044" fill="#8c8c8c"  d="m 452.48637,426.83931 c -5.23846,0 -9.48638,-4.25972 -9.48638,-9.51274 V 260.59549 c 0,-5.25301 4.24792,-9.51274 9.48638,-9.51274 5.23847,0 9.48639,4.25973 9.48639,9.51274 v 156.73108 c 0,5.25302 -4.24792,9.51274 -9.48639,9.51274 z"/>
    <rect width="13.651757" y="256.91138" id="rect20" gorn="0.5" height="77.412941" stroke-width="7.07247" fill="#8c8c8c"  x="376.15689"/>
    <path id="path24" gorn="0.6" stroke-width="7.07247" fill="#8c8c8c"  d="m 435.54521,334.32434 c 0,-9.24827 -6.75603,-16.57442 -13.26443,-23.56183 -2.64145,-2.88319 -7.60688,-7.89333 -7.60688,-11.22554 v -43.09823 h -13.72796 v 45.5324 c 0,8.35023 6.01313,14.80196 12.35643,21.64758 2.80655,2.96984 8.56568,9.84697 8.56568,13.95118"/>
    <path id="path28" gorn="0.7" style="opacity:0.3;" stroke-width="7.07247" fill="#ffffff"  d="M 477.0402,187.82505 V 102.40849 C 477.0402,45.886883 440.14236,0 394.53914,0 348.96768,0 311.99999,45.792352 311.99999,102.40849 v 197.16786 c 17.16946,23.86906 47.7113,39.79752 82.53915,39.79752 53.79427,0 97.46084,-37.836 97.46084,-84.66031 v -22.00995 c -0.0127,-16.50353 -5.52419,-31.84904 -14.95978,-44.87856 z"/>
    <path id="path32" gorn="0.8" style="opacity:0.5;" stroke-width="7.07247" fill="#e6e6e6"  d="M 477.0402,187.82505 V 102.40849 C 477.0402,45.886883 440.14236,0 394.53914,0 348.96768,0 311.99999,45.792352 311.99999,102.40849 v 197.16786 c 17.16946,23.86906 47.7113,39.79752 82.53915,39.79752 53.79427,0 97.46084,-37.836 97.46084,-84.66031 v -22.00995 c -0.0127,-16.50353 -5.52419,-31.84904 -14.95978,-44.87856 z"/>
    <path id="path35" gorn="0.9" style="opacity:0.9;" stroke-width="7.07247" fill="#d1d1d1"  d="m 477.0402,187.82505 v 44.85492 c 0,39.58483 -36.87244,71.74897 -82.50106,71.74897 -45.57146,0 -82.53915,-32.07749 -82.53915,-71.74897 v 44.8628 22.00995 c 17.16946,23.86118 47.7113,39.78964 82.53915,39.78964 53.79427,0 97.46084,-37.82812 97.46084,-84.65244 v -22.00995 c -0.0127,-16.47989 -5.52419,-31.8254 -14.95978,-44.85492 z"/>
    <path id="path38" gorn="0.10" style="opacity:0.7;" stroke-width="7.07247" fill="#808080"  d="m 477.0402,187.82505 v 44.85492 c 0,39.58483 -36.87244,71.74897 -82.50106,71.74897 -45.57146,0 -82.53915,-32.07749 -82.53915,-71.74897 v 44.8628 22.00995 c 17.16946,23.86118 47.7113,39.78964 82.53915,39.78964 53.79427,0 97.46084,-37.82812 97.46084,-84.65244 v -22.00995 c -0.0127,-16.47989 -5.52419,-31.8254 -14.95978,-44.85492 z"/>
    <path id="path41" gorn="0.11" style="opacity:0.25;" stroke-width="7.07247" fill="#cccccc"  d="m 477.0402,187.82505 v 44.85492 c 0,39.58483 -36.87244,71.74897 -82.50106,71.74897 -45.57146,0 -82.53915,-32.07749 -82.53915,-71.74897 v 44.8628 c 17.16946,23.83755 47.7113,39.77388 82.53915,39.77388 53.79427,0 97.46084,-37.82812 97.46084,-84.63668 -0.0127,-16.47989 -5.52419,-31.8254 -14.95978,-44.85492 z"/>
    <ellipse rx="82.526451" id="ellipse44" gorn="0.12" style="opacity:0.25;" ry="71.670189" cx="394.53915" stroke-width="7.07247" fill="#e6e6e6"  cy="232.67998"/>
    <ellipse rx="82.526451" id="ellipse47" gorn="0.13" style="opacity:0.25;" ry="71.670189" cx="394.53915" stroke-width="7.07247" fill="#808080"  cy="232.67998"/>
    <g transform="matrix(6.3496541,0,0,7.8775764,311.99999,0)" >
        <g >
            <g >
                <g >
                    <polygon id="polygon50" gorn="0.14.0.0.0.0" style="fill:#666666"  points="4.041,29.54 5.861,29.54 5.861,24.014 11.033,24.014 18.361,16.146 6.249,16.146 4.041,17.693 "/>
                </g>
            </g>
        </g>
    </g>
    <g transform="matrix(6.3496541,0,0,7.8775764,311.99999,0)" >
        <g >
            <g >
                <g >
                    <polygon id="polygon53" gorn="0.15.0.0.0.0" style="fill:#666666"  points="20.565,16.568 13.594,24.014 20.285,24.014 20.285,29.54 21.961,29.54 21.961,15.632 19.769,15.632 "/>
                </g>
            </g>
        </g>
    </g>
    <path id="path56" gorn="0.16" style="opacity:0.65;" stroke-width="7.07247" fill="#000000"  d="M 477.0402,187.82505 V 102.40849 C 477.0402,45.886883 440.14236,0 394.53914,0 348.96768,0 311.99999,45.792352 311.99999,102.40849 v 197.16786 c 17.16946,23.86906 47.7113,39.79752 82.53915,39.79752 53.79427,0 97.46084,-37.836 97.46084,-84.66031 v -22.00995 c -0.0127,-16.50353 -5.52419,-31.84904 -14.95978,-44.87856 z"/>
    <path id="path59" gorn="0.17" style="opacity:0.5;" stroke-width="7.07247" fill="#ffffff"  d="m 432.97995,54.229236 16.73134,-3.938788 C 439.89472,33.936599 425.46196,22.017826 408.46394,17.960874 l 2.96528,15.613357 c 8.87047,3.8994 16.35671,11.257056 21.55073,20.655005 z"/>
    <path id="path62" gorn="0.18" style="opacity:0.5;" stroke-width="7.07247" fill="#ffffff"  d="m 320.94665,287.88603 v 21.9548 c 7.54974,7.64913 16.69959,14.10874 26.87174,19.03223 V 306.8316 c -10.23564,-4.85259 -19.29025,-11.3122 -26.87174,-18.94557 z"/>
    <path id="path66" gorn="0.19" style="opacity:0.5;" stroke-width="7.07247" fill="#ffffff"  d="m 440.94877,291.97449 c -2.96529,1.76458 -6.17187,3.31646 -9.38479,4.75806 -0.69212,0.29147 -1.36518,0.57506 -2.07634,0.82714 -6.55919,2.59173 -13.52476,4.61626 -20.90306,5.727 -0.8699,0.1418 -1.75251,0.29147 -2.62241,0.29147 -3.7209,0.41751 -7.49894,0.83502 -11.30238,0.83502 -1.72076,0 -3.57486,-0.22057 -5.4988,-0.33873 -13.96289,-0.81927 -27.13208,-4.53748 -38.39001,-10.66624 V 172.20382 102.44788 c 0,-21.245822 9.88006,-39.427269 24.15408,-48.376196 l -0.25398,-0.787757 -14.54071,-21.836642 c -19.44264,14.486863 -32.47213,40.782213 -32.47213,70.976965 v 171.99112 c -0.58417,-0.70898 -3.60026,-4.45083 -5.59405,-7.657 l -3.58755,9.9415 c 16.31226,21.40338 44.35868,35.58301 76.19585,35.58301 19.56328,0 37.70424,-5.41189 52.51799,-14.50261 l -6.11472,-5.89243 c -0.12699,0.0867 -0.12699,0.0867 -0.12699,0.0867 z"/>
    <path id="path13-3" gorn="0.20" stroke-width="7.91023" fill="#8c8c8c"  d="m 97.155799,426.83933 c -5.238465,0 -9.486383,-4.43191 -9.486383,-9.89729 V 253.87519 c 0,-5.46536 4.247918,-9.89729 9.486383,-9.89729 5.238461,0 9.486381,4.43193 9.486381,9.89729 v 163.06685 c 0,5.46538 -4.24792,9.89729 -9.486381,9.89729 z"/>
    <path id="path16-0" gorn="0.21" stroke-width="7.44034" fill="#8c8c8c"  d="M 189.48638,426.8393 C 184.24791,426.8393 180,422.80904 180,417.839 V 269.55099 c 0,-4.97005 4.24791,-9.0003 9.48638,-9.0003 5.23846,0 9.48638,4.03025 9.48638,9.0003 V 417.839 c 0,4.97004 -4.24792,9.0003 -9.48638,9.0003 z"/>
    <rect width="13.651757" y="252.86423" id="rect20-5" gorn="0.22" height="72.721245" stroke-width="6.85481" fill="#8c8c8c"  x="111.15691"/>
    <path id="path24-7" gorn="0.23" stroke-width="6.85481" fill="#8c8c8c"  d="m 170.54522,325.58549 c 0,-8.68778 -6.75603,-15.56991 -13.26443,-22.13384 -2.64145,-2.70846 -7.60688,-7.41495 -7.60688,-10.54521 v -40.48621 h -13.72796 v 42.77285 c 0,7.84416 6.01313,13.90488 12.35643,20.33561 2.80655,2.78985 8.56568,9.25018 8.56568,13.10566"/>
    <path id="path28-2" gorn="0.24" style="opacity:0.3;" stroke-width="6.85481" fill="#ffffff"  d="m 212.04021,187.96494 v -80.23979 c 0,-53.096063 -36.89784,-96.201922 -82.50106,-96.201922 -45.571465,0 -82.539151,43.017057 -82.539151,96.201922 v 185.21829 c 17.169465,22.42244 47.711301,37.38554 82.539151,37.38554 53.79427,0 97.46084,-35.54291 97.46084,-79.52938 v -20.67601 c -0.0127,-15.50331 -5.5242,-29.9188 -14.95978,-42.15865 z"/>
    <path id="path32-3" gorn="0.25" style="opacity:0.5;" stroke-width="6.85481" fill="#e6e6e6"  d="m 212.04021,187.96494 v -80.23979 c 0,-53.096063 -36.89784,-96.201922 -82.50106,-96.201922 -45.571465,0 -82.539151,43.017057 -82.539151,96.201922 v 185.21829 c 17.169465,22.42244 47.711301,37.38554 82.539151,37.38554 53.79427,0 97.46084,-35.54291 97.46084,-79.52938 v -20.67601 c -0.0127,-15.50331 -5.5242,-29.9188 -14.95978,-42.15865 z"/>
    <path id="path35-7" gorn="0.26" style="opacity:0.9;" stroke-width="6.85481" fill="#d1d1d1"  d="m 212.04021,187.96494 v 42.13644 c 0,37.18575 -36.87244,67.40055 -82.50106,67.40055 -45.571465,0 -82.539151,-30.1334 -82.539151,-67.40055 v 42.14384 20.67602 c 17.169465,22.41504 47.711301,37.37814 82.539151,37.37814 53.79427,0 97.46084,-35.53551 97.46084,-79.52198 v -20.67602 c -0.0127,-15.4811 -5.5242,-29.89659 -14.95978,-42.13644 z"/>
    <path id="path38-9" gorn="0.27" style="opacity:0.7;" stroke-width="6.85481" fill="#808080"  d="m 212.04021,187.96494 v 42.13644 c 0,37.18575 -36.87244,67.40055 -82.50106,67.40055 -45.571465,0 -82.539151,-30.1334 -82.539151,-67.40055 v 42.14384 20.67602 c 17.169465,22.41504 47.711301,37.37814 82.539151,37.37814 53.79427,0 97.46084,-35.53551 97.46084,-79.52198 v -20.67602 c -0.0127,-15.4811 -5.5242,-29.89659 -14.95978,-42.13644 z"/>
    <path id="path41-5" gorn="0.28" style="opacity:0.25;" stroke-width="6.85481" fill="#cccccc"  d="m 212.04021,187.96494 v 42.13644 c 0,37.18575 -36.87244,67.40055 -82.50106,67.40055 -45.571465,0 -82.539151,-30.1334 -82.539151,-67.40055 v 42.14384 c 17.169465,22.39285 47.711301,37.36335 82.539151,37.36335 53.79427,0 97.46084,-35.53551 97.46084,-79.50719 -0.0127,-15.4811 -5.5242,-29.89659 -14.95978,-42.13644 z"/>
    <ellipse rx="82.526451" id="ellipse44-1" gorn="0.29" style="opacity:0.25;" ry="67.326538" cx="129.53915" stroke-width="6.85481" fill="#e6e6e6"  cy="230.10139"/>
    <ellipse rx="82.526451" id="ellipse47-0" gorn="0.30" style="opacity:0.25;" ry="67.326538" cx="129.53915" stroke-width="6.85481" fill="#808080"  cy="230.10139"/>
    <g transform="matrix(6.3496541,0,0,7.4001475,46.999999,11.523228)" >
        <g >
            <g >
                <g >
                    <polygon id="polygon50-7" gorn="0.31.0.0.0.0" style="fill:#666666"  points="5.861,29.54 5.861,24.014 11.033,24.014 18.361,16.146 6.249,16.146 4.041,17.693 4.041,29.54 "/>
                </g>
            </g>
        </g>
    </g>
    <g transform="matrix(6.3496541,0,0,7.4001475,46.999999,11.523228)" >
        <g >
            <g >
                <g >
                    <polygon id="polygon53-9" gorn="0.32.0.0.0.0" style="fill:#666666"  points="13.594,24.014 20.285,24.014 20.285,29.54 21.961,29.54 21.961,15.632 19.769,15.632 20.565,16.568 "/>
                </g>
            </g>
        </g>
    </g>
    <path id="path56-9" gorn="0.33" style="opacity:0.65;" stroke-width="6.85481" fill="#e6e6e6"  d="m 212.04021,187.96494 v -80.23979 c 0,-53.096063 -36.89784,-96.201922 -82.50106,-96.201922 -45.571465,0 -82.539151,43.017057 -82.539151,96.201922 v 185.21829 c 17.169465,22.42244 47.711301,37.38554 82.539151,37.38554 53.79427,0 97.46084,-35.54291 97.46084,-79.52938 v -20.67601 c -0.0127,-15.50331 -5.5242,-29.9188 -14.95978,-42.15865 z"/>
    <path id="path59-6" gorn="0.34" style="opacity:0.5;" stroke-width="6.85481" fill="#ffffff"  d="M 167.97996,62.465843 184.7113,58.76577 C 174.89473,43.403063 160.46197,32.20664 143.46394,28.395564 l 2.96529,14.667093 c 8.87047,3.663073 16.35671,10.57481 21.55073,19.403186 z"/>
    <path id="path62-7" gorn="0.35" style="opacity:0.5;" stroke-width="6.85481" fill="#ffffff"  d="m 55.946662,281.96162 v 20.62421 c 7.549738,7.18554 16.69959,13.25366 26.871736,17.87876 V 299.75897 C 72.582755,295.20048 63.528149,289.13236 55.946662,281.96162 Z"/>
    <path id="path66-2" gorn="0.36" style="opacity:0.5;" stroke-width="6.85481" fill="#ffffff"  d="m 175.94877,285.80229 c -2.96528,1.65764 -6.17186,3.11547 -9.38478,4.46969 -0.69212,0.27381 -1.36518,0.54021 -2.07634,0.77702 -6.55919,2.43465 -13.52476,4.33649 -20.90306,5.37991 -0.86991,0.1332 -1.75251,0.2738 -2.62241,0.2738 -3.7209,0.39221 -7.49894,0.78442 -11.30238,0.78442 -1.72076,0 -3.57486,-0.20721 -5.4988,-0.31821 -13.96289,-0.76961 -27.132076,-4.26248 -38.390013,-10.0198 v -113.85867 -65.5283 c 0,-19.958202 9.880062,-37.037742 24.154083,-45.44431 L 109.67108,61.577826 95.130377,41.064617 C 75.687736,54.673488 62.658246,79.37518 62.658246,107.73995 v 161.56742 c -0.584168,-0.66602 -3.600254,-4.18109 -5.594045,-7.19295 l -3.587555,9.33899 c 16.312262,20.1062 44.358684,33.42647 76.195854,33.42647 19.56328,0 37.70424,-5.08391 52.51798,-13.62368 l -6.11471,-5.53531 c -0.127,0.0814 -0.127,0.0814 -0.127,0.0814 z"/>
    <rect width="551.18109" y="349.18839" id="upper" gorn="0.37" height="1265.151" stroke-width="0" fill="#0d4079"  x="0"/>
    <circle id="connector1pin-2" gorn="0.38" stroke="#9a916c" cx="97.000008" connectorname="RED" stroke-width="17" fill="#ffffff"  fill-opacity="1" r="28.500006" cy="424.00595"/>
    <circle id="circle7695" gorn="0.39" stroke="#9a916c" cx="359.56161" connectorname="RED" stroke-width="17" fill="#ffffff"  fill-opacity="1" r="28.500006" cy="424.00595"/>
    <circle id="circle7697" gorn="0.40" stroke="#9a916c" cx="452.56161" connectorname="RED" stroke-width="17" fill="#ffffff"  fill-opacity="1" r="28.500006" cy="424.00595"/>
    <rect width="93.123207" y="378.88275" id="rect27016" stroke-opacity="1" gorn="0.41" style="stroke-linecap:butt;stroke-linejoin:miter;stroke-miterlimit:4;stroke-dasharray:none;paint-order:normal" stroke="#ffffff" height="93.123207" stroke-width="8" fill="none"  x="50" fill-opacity="1"/>
    <circle id="circle7691" gorn="0.42" stroke="#9a916c" cx="189.5616" connectorname="RED" stroke-width="17" fill="#ffffff"  fill-opacity="1" r="28.500006" cy="424.00595"/>
    <rect width="93.123207" y="378.88275" id="rect27018" stroke-opacity="1" gorn="0.43" style="stroke-linecap:butt;stroke-linejoin:miter;stroke-miterlimit:4;stroke-dasharray:none;paint-order:normal" stroke="#ffffff" height="93.123207" stroke-width="8" fill="none"  x="143" fill-opacity="1"/>
    <rect width="275" y="767.7583" id="rect7356" gorn="0.44" style="paint-order:normal" stroke="none" height="275" stroke-width="11.9597" fill="#3250be"  x="259.13486" fill-opacity="1"/>
    <path id="path7365" gorn="0.45" style="paint-order:normal" stroke="none" stroke-width="8.92891" fill="#999999"  fill-opacity="1" d="m 396.64335,845.25853 a 60.002354,60.002235 0 0 0 -4.25517,0.1395 60.002354,60.002235 0 0 0 -5.94681,0.7324 60.002354,60.002235 0 0 0 -5.85961,1.30793 60.002354,60.002235 0 0 0 -5.6852,1.90091 60.002354,60.002235 0 0 0 -5.47594,2.44148 60.002354,60.002235 0 0 0 -5.19691,2.98213 60.002354,60.002235 0 0 0 -4.88302,3.48784 60.002354,60.002235 0 0 0 -4.51677,3.95872 60.002354,60.002235 0 0 0 -4.08079,4.39469 60.002354,60.002235 0 0 0 -3.62739,4.77837 60.002354,60.002235 0 0 0 -3.13907,5.1097 60.002354,60.002235 0 0 0 -2.59846,5.40617 60.002354,60.002235 0 0 0 -2.05784,5.63288 60.002354,60.002235 0 0 0 -1.48232,5.80729 60.002354,60.002235 0 0 0 -0.90682,5.92935 60.002354,60.002235 0 0 0 -0.29635,5.9991 60.002354,60.002235 0 0 0 0.15694,4.23774 60.002354,60.002235 0 0 0 0.71506,5.94679 60.002354,60.002235 0 0 0 1.30795,5.8596 60.002354,60.002235 0 0 0 1.90088,5.68519 60.002354,60.002235 0 0 0 2.44151,5.47592 60.002354,60.002235 0 0 0 2.98212,5.19691 60.002354,60.002235 0 0 0 3.48786,4.88301 60.002354,60.002235 0 0 0 3.95872,4.51675 60.002354,60.002235 0 0 0 4.39469,4.08079 60.002354,60.002235 0 0 0 4.77838,3.62736 60.002354,60.002235 0 0 0 5.1097,3.13908 60.002354,60.002235 0 0 0 5.40619,2.6159 60.002354,60.002235 0 0 0 5.63289,2.04038 60.002354,60.002235 0 0 0 5.80729,1.49979 60.002354,60.002235 0 0 0 5.92935,0.88941 60.002354,60.002235 0 0 0 5.99914,0.2965 60.002354,60.002235 0 0 0 4.23774,-0.1395 60.002354,60.002235 0 0 0 5.9468,-0.73251 60.002354,60.002235 0 0 0 5.8596,-1.30794 60.002354,60.002235 0 0 0 5.68522,-1.90088 60.002354,60.002235 0 0 0 5.47594,-2.4415 60.002354,60.002235 0 0 0 5.21436,-2.98211 60.002354,60.002235 0 0 0 4.86555,-3.48785 60.002354,60.002235 0 0 0 4.51678,-3.95872 60.002354,60.002235 0 0 0 4.08082,-4.3947 60.002354,60.002235 0 0 0 3.62735,-4.77835 60.002354,60.002235 0 0 0 3.13908,-5.10969 60.002354,60.002235 0 0 0 2.61591,-5.40618 60.002354,60.002235 0 0 0 2.05782,-5.6329 60.002354,60.002235 0 0 0 1.48235,-5.80726 60.002354,60.002235 0 0 0 0.8894,-5.92936 60.002354,60.002235 0 0 0 0.29635,-5.98167 60.002354,60.002235 0 0 0 -0.13953,-4.25518 60.002354,60.002235 0 0 0 -0.73247,-5.9467 60.002354,60.002235 0 0 0 -1.30804,-5.85961 60.002354,60.002235 0 0 0 -1.9009,-5.68529 60.002354,60.002235 0 0 0 -2.44149,-5.47591 60.002354,60.002235 0 0 0 -2.98211,-5.1969 60.002354,60.002235 0 0 0 -3.48787,-4.883 60.002354,60.002235 0 0 0 -3.9587,-4.51677 60.002354,60.002235 0 0 0 -4.39473,-4.08079 60.002354,60.002235 0 0 0 -4.77836,-3.62737 60.002354,60.002235 0 0 0 -5.10972,-3.13905 60.002354,60.002235 0 0 0 -5.40617,-2.6159 60.002354,60.002235 0 0 0 -5.63289,-2.04038 60.002354,60.002235 0 0 0 -5.8073,-1.4998 60.002354,60.002235 0 0 0 -5.92936,-0.8894 60.002354,60.002235 0 0 0 -5.98169,-0.2965 z"/>
    <g transform="matrix(12.175324,0,0,10.356334,261.64095,804.33582)" >
        <g >
            <g >
                <g >
                    <polygon id="polygon37" gorn="0.46.0.0.0.0" style="fill:#333333"  points="12.182,10.837 16.818,10.837 16.818,8.652 12.182,8.652 12.182,4.014 9.995,4.014 9.995,8.652 5.357,8.652 5.357,10.837 9.995,10.837 9.995,15.476 12.182,15.476 "/>
                </g>
            </g>
        </g>
    </g>
    <path id="path87" gorn="0.47" stroke-width="12.1306" fill="#263c8f"  d="m 396.63487,835.2583 c -38.66379,0 -70.00001,31.33079 -70.00001,70 0,38.6692 31.33622,70 70.00001,70 38.6759,0 69.99999,-31.3308 69.99999,-70 -0.0121,-38.68134 -31.36048,-70 -69.99999,-70 z m 0,125.05632 c -30.43848,0 -55.10225,-24.65951 -55.10225,-55.09271 0,-30.44533 24.66377,-55.0927 55.10225,-55.0927 30.45059,0 55.10224,24.64737 55.10224,55.0927 0,30.4332 -24.65165,55.09271 -55.10224,55.09271 z"/>
    <path id="path63" gorn="0.48" stroke-width="12.3679" fill="#263c8f"  d="m 354.24454,869.62337 -25.85677,-17.1779 -6.91418,10.2402 25.8816,17.19021 c 1.92406,-3.6845 4.2205,-7.09789 6.88935,-10.25251 z"/>
    <path id="path65" gorn="0.49" stroke-width="12.3679" fill="#263c8f"  d="m 397.24399,849.46337 c 1.94888,0 3.78604,0.36969 5.68527,0.56685 l -0.43447,-45.39695 -12.41323,0.13555 0.43446,45.3723 c 2.23438,-0.25877 4.41911,-0.67775 6.72797,-0.67775 z"/>
    <path id="path67" gorn="0.50" stroke-width="12.3679" fill="#263c8f"  d="m 374.98706,854.03511 -14.23798,-24.99051 -10.79952,6.06279 14.30005,25.11373 c 3.35157,-2.41526 6.88935,-4.54709 10.73745,-6.18601 z"/>
    <path id="path69" gorn="0.51" stroke-width="12.3679" fill="#263c8f"  d="m 453.62492,905.43323 c 0,0.51755 -0.13655,0.97349 -0.16138,1.50337 l 30.53657,-2.66171 -1.10478,-12.27344 -30.36278,2.64939 c 0.69514,3.49966 1.09237,7.09789 1.09237,10.78239 z"/>
    <path id="path71" gorn="0.52" stroke-width="12.3679" fill="#263c8f"  d="m 429.46876,859.59266 13.55525,-24.65779 -10.91123,-5.89027 -13.53043,24.63315 c 3.8481,1.56499 7.48518,3.56127 10.88641,5.91491 z"/>
    <path id="path73" gorn="0.53" stroke-width="12.3679" fill="#263c8f"  d="m 447.2321,880.08537 24.1934,-15.95794 -6.86452,-10.26484 -24.1934,15.94562 c 2.66884,3.15462 4.96529,6.56801 6.86452,10.27716 z"/>
    <path id="path75" gorn="0.54" stroke-width="12.3679" fill="#263c8f"  d="m 446.64868,931.90246 31.65375,12.58151 4.5929,-11.44782 -31.59169,-12.56919 c -1.1296,4.01721 -2.68126,7.82494 -4.65496,11.4355 z"/>
    <path id="path77" gorn="0.55" stroke-width="12.3679" fill="#263c8f"  d="m 430.71008,950.26333 36.80525,39.16165 9.04925,-8.41643 -36.83008,-39.19861 c -2.69367,3.14229 -5.66043,6.00117 -9.02442,8.45339 z"/>
    <path id="path79" gorn="0.56" stroke-width="12.3679" fill="#263c8f"  d="m 354.51763,941.58813 -26.01814,27.38111 9.03683,8.4534 26.00574,-27.34415 c -3.33917,-2.50151 -6.31834,-5.33574 -9.02443,-8.49036 z"/>
    <path id="path81" gorn="0.57" stroke-width="12.3679" fill="#263c8f"  d="m 340.86307,905.43323 c 0,-3.90631 0.40964,-7.70171 1.17926,-11.39853 l -32.90749,-3.19159 -1.20409,12.2488 33.03163,3.24088 c -0.0124,-0.30807 -0.0993,-0.57917 -0.0993,-0.89956 z"/>
    <path id="path83" gorn="0.58" stroke-width="12.3679" fill="#263c8f"  d="m 342.87402,919.46882 -33.44126,12.58151 4.39428,11.5464 33.52815,-12.58151 c -1.91163,-3.67217 -3.43846,-7.50454 -4.48117,-11.5464 z"/>
    <path id="path91" gorn="0.59" stroke="#000000" stroke-width="3.07447" fill="none"  d="m 441.33949,959.67166 -0.9767,0.77714 c -12.5981,9.68268 -27.6632,14.78923 -43.56737,14.78923 -16.0544,0 -31.23222,-5.19288 -43.86789,-15.03594 l -0.97671,-0.77714 -15.45331,16.14604 -7.13809,-6.63603 15.45331,-16.13372 -0.82658,-0.9127 c -4.38306,-4.84746 -8.0648,-10.23771 -10.93256,-16.072 l -0.53852,-1.09782 -19.09752,7.10476 -3.48139,-9.02894 19.04743,-7.10476 -0.3381,-1.17179 c -1.82839,-6.36468 -2.75507,-12.76636 -2.75507,-19.1187 v -1.19645 l -1.17724,-0.75249 -16.54284,-1.6035 0.96429,-9.62103 17.75755,1.73919 0.22536,-1.22112 c 1.37754,-7.43784 3.90721,-14.46859 7.48874,-20.8826 l 0.58856,-1.06082 -12.96126,-8.57258 5.46003,-8.04218 12.98629,8.56024 0.77655,-0.96211 c 4.3704,-5.34087 9.46725,-10.02804 15.16519,-13.91345 l 1.01457,-0.70309 -6.7123,-11.66857 8.54064,-4.7735 6.72484,11.70557 1.12707,-0.4934 c 7.23815,-3.281 14.87716,-5.31622 22.66643,-6.04396 l 1.23968,-0.11101 -0.28794,-29.82516 9.81798,-0.11101 0.28795,29.88683 1.23969,0.11101 c 7.98961,0.6044 15.69124,2.4916 22.91699,5.5876 l 1.12719,0.49337 6.18635,-11.17518 8.62831,4.61315 -6.21138,11.18752 1.03941,0.67834 c 6.1738,4.04576 11.6839,9.00428 16.32992,14.81389 l 0.78896,0.962 11.25812,-7.38843 5.4475,8.04218 -11.25816,7.35144 0.61364,1.07308 c 3.59408,6.52502 6.11119,13.75312 7.47619,21.40061 l 0.23779,1.22112 15.19033,-1.29515 0.83913,9.62103 -15.19035,1.30747 -0.0256,1.20879 c -0.0119,6.89508 -1.03941,13.69146 -3.08066,20.24114 l -0.36319,1.18413 17.24411,6.79638 -3.64419,8.97962 -17.30672,-6.82105 -0.56348,1.08549 c -2.81765,5.43958 -6.38667,10.54611 -10.63196,15.17159 l -0.82659,0.88816 26.42345,27.91329 -7.17565,6.61136 z"/>
    <g transform="matrix(0,-1.0842695,0.92227994,0,0,0)" >
        <g >
            <g >
                <g >
                    <text y="568.06549" id="text95" gorn="0.60.0.0.0.0" style="font-family:OCRA;letter-spacing:-5.20833;" stroke-width="11.2291" fill="#263c8f"  x="-947.98083" font-size="44.9162">1 3362 3</text>
                </g>
            </g>
        </g>
    </g>
    <g transform="matrix(-0.1,0,0,-0.1,476.99999,1599.9999)" >
        <g >
            <g >
                <g >
                    <polygon id="polygon39-2" gorn="0.61.0.0.0.0" style="fill:#404040"  points="2782.75,1000 3000,782.747 3000,217.113 2782.75,0 2217.11,0 2000,217.113 2000,782.747 2217.11,1000 "/>
                </g>
            </g>
        </g>
    </g>
    <g transform="scale(-1)" >
        <g >
            <g >
                <g >
                    <rect width="31.920624" y="-1564.9998" id="rect43" gorn="0.62.0.0.0.0" height="31.921101" stroke-width="0.0999993" fill="#8d8c8c"  x="-243.89813"/>
                </g>
            </g>
        </g>
    </g>
    <g transform="matrix(-0.09999851,0,0,-0.1,477.94065,1599.0462)" >
        <g >
            <g >
                <g >
                    <polygon id="polygon47" gorn="0.63.0.0.0.0" style="fill:#b8af82"  points="2659.67,340.463 2340.46,340.463 2417.97,417.974 2582.03,417.974 "/>
                </g>
            </g>
        </g>
    </g>
    <g transform="matrix(-0.09999851,0,0,-0.1,477.94065,1599.0462)" >
        <g >
            <g >
                <g >
                    <polygon id="polygon49" gorn="0.64.0.0.0.0" style="fill:#80795b"  points="2659.67,659.674 2582.03,582.025 2582.03,417.974 2659.67,340.463 "/>
                </g>
            </g>
        </g>
    </g>
    <g transform="matrix(-0.09999851,0,0,-0.1,477.94065,1599.0462)" >
        <g >
            <g >
                <g >
                    <polygon id="polygon51" gorn="0.65.0.0.0.0" style="fill:#5e5b43"  points="2340.46,659.674 2417.97,582.025 2582.03,582.025 2659.67,659.674 "/>
                </g>
            </g>
        </g>
    </g>
    <g transform="matrix(-0.09999851,0,0,-0.1,477.94065,1599.0462)" >
        <g >
            <g >
                <g >
                    <polygon id="polygon53-8" gorn="0.66.0.0.0.0" style="fill:#9a916c"  points="2340.46,659.674 2340.46,340.463 2417.97,417.974 2417.97,582.025 "/>
                </g>
            </g>
        </g>
    </g>
    <g transform="matrix(-0.1,0,0,-0.1,377.47228,1599.9999)" >
        <g >
            <g >
                <g >
                    <polygon id="polygon39-2-7" gorn="0.67.0.0.0.0" style="fill:#404040"  points="2217.11,1000 2782.75,1000 3000,782.747 3000,217.113 2782.75,0 2217.11,0 2000,217.113 2000,782.747 "/>
                </g>
            </g>
        </g>
    </g>
    <g transform="scale(-1)" >
        <g >
            <g >
                <g >
                    <rect width="31.920624" y="-1564.9999" id="rect43-9" gorn="0.68.0.0.0.0" height="31.921101" stroke-width="0.0999993" fill="#8d8c8c"  x="-144.37044"/>
                </g>
            </g>
        </g>
    </g>
    <g transform="matrix(-0.09999851,0,0,-0.1,378.41294,1599.0462)" >
        <g >
            <g >
                <g >
                    <polygon id="polygon47-8" gorn="0.69.0.0.0.0" style="fill:#b8af82"  points="2582.03,417.974 2659.67,340.463 2340.46,340.463 2417.97,417.974 "/>
                </g>
            </g>
        </g>
    </g>
    <g transform="matrix(-0.09999851,0,0,-0.1,378.41294,1599.0462)" >
        <g >
            <g >
                <g >
                    <polygon id="polygon49-5" gorn="0.70.0.0.0.0" style="fill:#80795b"  points="2659.67,340.463 2659.67,659.674 2582.03,582.025 2582.03,417.974 "/>
                </g>
            </g>
        </g>
    </g>
    <g transform="matrix(-0.09999851,0,0,-0.1,378.41294,1599.0462)" >
        <g >
            <g >
                <g >
                    <polygon id="polygon51-0" gorn="0.71.0.0.0.0" style="fill:#5e5b43"  points="2659.67,659.674 2340.46,659.674 2417.97,582.025 2582.03,582.025 "/>
                </g>
            </g>
        </g>
    </g>
    <g transform="matrix(-0.09999851,0,0,-0.1,378.41294,1599.0462)" >
        <g >
            <g >
                <g >
                    <polygon id="polygon53-8-8" gorn="0.72.0.0.0.0" style="fill:#9a916c"  points="2417.97,582.025 2340.46,659.674 2340.46,340.463 2417.97,417.974 "/>
                </g>
            </g>
        </g>
    </g>
    <g transform="matrix(-0.1,0,0,-0.1,476.99998,1599.9999)" >
        <g >
            <g >
                <g >
                    <polygon id="polygon23" gorn="0.73.0.0.0.0" style="fill:#404040"  points="1782.75,1000 2000,782.747 2000,217.113 1782.75,0 1217.11,0 1000,217.113 1000,782.747 1217.11,1000 "/>
                </g>
            </g>
        </g>
    </g>
    <g transform="scale(-1)" >
        <g >
            <g >
                <g >
                    <rect width="31.920624" y="-1564.9998" id="rect3452" gorn="0.74.0.0.0.0" height="31.921101" stroke-width="0.0999993" fill="#8d8c8c"  x="-344.06766"/>
                </g>
            </g>
        </g>
    </g>
    <g transform="matrix(-0.09999851,0,0,-0.1,578.11015,1599.0462)" >
        <g >
            <g >
                <g >
                    <polygon id="polygon3456" gorn="0.75.0.0.0.0" style="fill:#b8af82"  points="2340.46,340.463 2417.97,417.974 2582.03,417.974 2659.67,340.463 "/>
                </g>
            </g>
        </g>
    </g>
    <g transform="matrix(-0.09999851,0,0,-0.1,578.11015,1599.0462)" >
        <g >
            <g >
                <g >
                    <polygon id="polygon3458" gorn="0.76.0.0.0.0" style="fill:#80795b"  points="2582.03,582.025 2582.03,417.974 2659.67,340.463 2659.67,659.674 "/>
                </g>
            </g>
        </g>
    </g>
    <g transform="matrix(-0.09999851,0,0,-0.1,578.11015,1599.0462)" >
        <g >
            <g >
                <g >
                    <polygon id="polygon3460" gorn="0.77.0.0.0.0" style="fill:#5e5b43"  points="2417.97,582.025 2582.03,582.025 2659.67,659.674 2340.46,659.674 "/>
                </g>
            </g>
        </g>
    </g>
    <g transform="matrix(-0.09999851,0,0,-0.1,578.11015,1599.0462)" >
        <g >
            <g >
                <g >
                    <polygon id="polygon3462" gorn="0.78.0.0.0.0" style="fill:#9a916c"  points="2340.46,340.463 2417.97,417.974 2417.97,582.025 2340.46,659.674 "/>
                </g>
            </g>
        </g>
    </g>
    <g transform="matrix(-0.1,0,0,-0.1,476.99997,1599.9999)" >
        <g >
            <g >
                <g >
                    <polygon id="polygon7" gorn="0.79.0.0.0.0" style="fill:#404040"  points="782.747,1000 1000,782.747 1000,217.113 782.747,0 217.113,0 0,217.113 0,782.747 217.113,1000 "/>
                </g>
            </g>
        </g>
    </g>
    <g transform="scale(-1)" >
        <g >
            <g >
                <g >
                    <rect width="31.920624" y="-1564.7589" id="rect3482" gorn="0.80.0.0.0.0" height="31.921101" stroke-width="0.0999993" fill="#8d8c8c"  x="-444.06613"/>
                </g>
            </g>
        </g>
    </g>
    <g transform="matrix(-0.09999851,0,0,-0.1,678.10866,1598.8053)" >
        <g >
            <g >
                <g >
                    <polygon id="polygon3486" gorn="0.81.0.0.0.0" style="fill:#b8af82"  points="2340.46,340.463 2417.97,417.974 2582.03,417.974 2659.67,340.463 "/>
                </g>
            </g>
        </g>
    </g>
    <g transform="matrix(-0.09999851,0,0,-0.1,678.10866,1598.8053)" >
        <g >
            <g >
                <g >
                    <polygon id="polygon3488" gorn="0.82.0.0.0.0" style="fill:#80795b"  points="2582.03,582.025 2582.03,417.974 2659.67,340.463 2659.67,659.674 "/>
                </g>
            </g>
        </g>
    </g>
    <g transform="matrix(-0.09999851,0,0,-0.1,678.10866,1598.8053)" >
        <g >
            <g >
                <g >
                    <polygon id="polygon3490" gorn="0.83.0.0.0.0" style="fill:#5e5b43"  points="2417.97,582.025 2582.03,582.025 2659.67,659.674 2340.46,659.674 "/>
                </g>
            </g>
        </g>
    </g>
    <g transform="matrix(-0.09999851,0,0,-0.1,678.10866,1598.8053)" >
        <g >
            <g >
                <g >
                    <polygon id="polygon3492" gorn="0.84.0.0.0.0" style="fill:#9a916c"  points="2340.46,340.463 2417.97,417.974 2417.97,582.025 2340.46,659.674 "/>
                </g>
            </g>
        </g>
    </g>
    <circle id="path4155" stroke-opacity="1" gorn="0.85" style="stroke-miterlimit:4;stroke-dasharray:none;" stroke="#0a325f" cx="280.20834" stroke-width="20" fill="#ffffff"  fill-opacity="1" r="70" cy="1286.0059"/>
    <g transform="rotate(90)" >
        <g >
            <g >
                <g >
                    <text y="-370.89151" id="text1058" gorn="0.86.0.0.0.0" style="font-size:48.611;font-family:OCRA;fill:#ffffff"  x="1211.9839" font-size="48.61102295">FC-51</text>
                </g>
            </g>
        </g>
    </g>
    <g transform="scale(0.97243241,1.0283491)" >
        <g >
            <g >
                <g >
                    <text y="1425.3861" id="text3683" gorn="0.87.0.0.0.0" style="font-family:OCRA;" stroke-width="0.972432" fill="#ffffff"  x="281.85544" font-size="47.2709">GND</text>
                </g>
            </g>
        </g>
    </g>
    <g transform="scale(1.0286904,0.97210979)" >
        <g >
            <g >
                <g >
                    <text y="1507.8488" id="text3683-8" gorn="0.88.0.0.0.0" style="font-family:OCRA;" stroke-width="1.02869" fill="#ffffff"  x="88.315598" font-size="50.0057">A0</text>
                </g>
            </g>
        </g>
    </g>
    <text y="1465.7946" id="text3685-5" gorn="0.89" style="font-size:48.611;font-family:OCRA;fill:#ffffff"  x="191.35539" font-size="48.61102295">D0</text>
    <g transform="scale(0.95994817,1.0417229)" >
        <g >
            <g >
                <g >
                    <text y="1407.0868" id="text3687" gorn="0.90.0.0.0.0" style="font-family:OCRA;" stroke-width="0.959948" fill="#ffffff"  x="394.58096" font-size="46.6641">VCC</text>
                </g>
            </g>
        </g>
    </g>
    <rect width="49.999985" y="1244.6923" id="rect2606-9" gorn="0.91" style="paint-order:stroke markers fill" stroke="none" height="110.29408" stroke-width="2.7849" fill="#c1c1c1"  x="449.91669" fill-opacity="1"/>
    <rect width="38.888874" y="1250.5746" id="rect2606-7-7" gorn="0.92" style="paint-order:stroke markers fill" stroke="none" height="98.529373" stroke-width="2.32137" fill="#ececec"  x="455.17972" fill-opacity="1"/>
    <rect width="38.888874" y="1278.9341" id="rect2638-5" gorn="0.93" style="paint-order:stroke markers fill" stroke="none" height="44.11763" stroke-width="2.68919" fill="#ffdd55"  x="455.19186" fill-opacity="1"/>
    <path id="path2642-3" gorn="0.94" stroke-width="14.7059" fill="#cccccc"  fill-opacity="1" d="m 449.91667,1244.6922 5.26309,5.8824 h 38.88881 l 5.84808,-5.8824 z"/>
    <path id="path2642-5-3" gorn="0.95" stroke-width="14.7059" fill="#cccccc"  fill-opacity="1" d="m 449.91667,1354.9863 5.26309,-5.8824 h 38.88881 l 5.84808,5.8824 z"/>
    <rect width="0.88235259" y="1250.5745" id="rect2662-5" gorn="0.96" style="opacity:0.25;paint-order:stroke markers fill" height="99.764839" stroke-width="3.89092" fill="#f6f6f6"  x="455.17972" fill-opacity="1"/>
    <rect width="0.88235259" y="1250.5746" id="rect2662-6-8" gorn="0.97" style="opacity:0.25;paint-order:stroke markers fill" height="98.529327" stroke-width="3.86676" fill="#9b9b9b"  x="493.18622" fill-opacity="1"/>
    <g transform="rotate(90)" >
        <g >
            <g >
                <g >
                    <rect width="53.188183" y="-98.536583" id="rect299477-1-5" gorn="0.98.0.0.0.0" height="58.536583" stroke-width="21.6802" fill="#9a916c"  x="657.71704" class="pad-right"/>
                </g>
            </g>
        </g>
    </g>
    <g transform="rotate(90)" >
        <g >
            <g >
                <g >
                    <rect width="53.188183" y="-98.536583" id="rect299479-2-9" gorn="0.99.0.0.0.0" height="58.536583" stroke-width="21.6802" fill="#9a916c"  x="563.70697" class="pad-left"/>
                </g>
            </g>
        </g>
    </g>
    <g transform="matrix(0,26.594092,-21.680216,0,91.685635,579.66341)" >
        <g >
            <g >
                <g >
                    <g id="g299483-9-8" gorn="0.100.0.0.0.0" style="opacity:0.5;" stroke-width="0.902899" fill="#000000"  class="3d">
                        <path id="path299481-0-8" gorn="0.100.0.0.0.0.0" stroke-width="0.902899"  d="M 4.234,0 H 0.299 c -0.166,0 -0.3,0.134 -0.3,0.3 v 1.668 c 0,0.166 0.134,0.3 0.3,0.3 h 3.934 c 0.167,0 0.301,-0.134 0.301,-0.3 V 0.3 C 4.534,0.134 4.401,0 4.234,0 Z"/>
                    </g>
                </g>
            </g>
        </g>
    </g>
    <g transform="rotate(90)" >
        <g >
            <g >
                <g >
                    <rect width="93.079323" y="-93.853661" id="rect299485-5-8" gorn="0.101.0.0.0.0" height="49.170727" stroke-width="21.6802" fill="#222222"  x="590.75317" class="color res"/>
                </g>
            </g>
        </g>
    </g>
    <path id="path299487-4-8" gorn="0.102" stroke-width="21.6802" fill="#bbbbbb"  d="m 93.853657,603.46512 v -18.48289 c 0,-4.41462 -2.905149,-7.97823 -6.504065,-7.97823 h -36.1626 c -3.598916,0 -6.504065,3.56361 -6.504065,7.97823 v 18.48289 c 7.718157,1.56905 15.913279,2.57963 24.585365,2.57963 8.672086,0 16.867208,-1.01058 24.585365,-2.57963 z"/>
    <path id="path299489-5-0" gorn="0.103" stroke-width="21.6802" fill="#bbbbbb"  d="m 51.186992,697.60821 h 36.1626 c 3.598916,0 6.504065,-3.56361 6.504065,-7.97823 v -18.50949 c -7.718157,-1.56905 -15.913279,-2.57963 -24.585365,-2.57963 -8.672086,0 -16.867208,1.01058 -24.585365,2.57963 v 18.4829 c 0,4.44121 2.905149,8.00482 6.504065,8.00482 z"/>
    <g transform="rotate(90)" >
        <g >
            <g >
                <g >
                    <rect width="53.188183" y="-203.90244" id="rect7125" gorn="0.104.0.0.0.0" height="58.536583" stroke-width="21.6802" fill="#9a916c"  x="657.81781" class="pad-right"/>
                </g>
            </g>
        </g>
    </g>
    <g transform="rotate(90)" >
        <g >
            <g >
                <g >
                    <rect width="53.188183" y="-203.90244" id="rect7127" gorn="0.105.0.0.0.0" height="58.536583" stroke-width="21.6802" fill="#9a916c"  x="563.80768" class="pad-left"/>
                </g>
            </g>
        </g>
    </g>
    <g transform="matrix(0,26.594092,-21.680216,0,197.05149,579.76412)" >
        <g >
            <g >
                <g >
                    <g id="g7131" gorn="0.106.0.0.0.0" style="opacity:0.5;" stroke-width="0.902899" fill="#000000"  class="3d">
                        <path id="path7129" gorn="0.106.0.0.0.0.0" stroke-width="0.902899"  d="M 4.234,0 H 0.299 c -0.166,0 -0.3,0.134 -0.3,0.3 v 1.668 c 0,0.166 0.134,0.3 0.3,0.3 h 3.934 c 0.167,0 0.301,-0.134 0.301,-0.3 V 0.3 C 4.534,0.134 4.401,0 4.234,0 Z"/>
                    </g>
                </g>
            </g>
        </g>
    </g>
    <g transform="rotate(90)" >
        <g >
            <g >
                <g >
                    <rect width="93.079323" y="-199.21951" id="rect7137" gorn="0.107.0.0.0.0" height="49.170727" stroke-width="21.6802" fill="#222222"  x="590.85388" class="color res"/>
                </g>
            </g>
        </g>
    </g>
    <path id="path7139" gorn="0.108" stroke-width="21.6802" fill="#bbbbbb"  d="m 199.21951,603.56583 v -18.48289 c 0,-4.41462 -2.90515,-7.97823 -6.50406,-7.97823 h -36.16261 c -3.59891,0 -6.50406,3.56361 -6.50406,7.97823 v 18.48289 c 7.71816,1.56905 15.91328,2.57963 24.58537,2.57963 8.67208,0 16.8672,-1.01058 24.58536,-2.57963 z"/>
    <path id="path7141" gorn="0.109" stroke-width="21.6802" fill="#bbbbbb"  d="m 156.55284,697.70892 h 36.16261 c 3.59891,0 6.50406,-3.56361 6.50406,-7.97823 V 671.2212 c -7.71816,-1.56905 -15.91328,-2.57963 -24.58536,-2.57963 -8.67209,0 -16.86721,1.01058 -24.58537,2.57963 v 18.4829 c 0,4.44121 2.90515,8.00482 6.50406,8.00482 z"/>
    <g transform="rotate(90)" >
        <g >
            <g >
                <g >
                    <rect width="53.188183" y="-309.26828" id="rect7151" gorn="0.110.0.0.0.0" height="58.536583" stroke-width="21.6802" fill="#9a916c"  x="657.81781" class="pad-right"/>
                </g>
            </g>
        </g>
    </g>
    <g transform="rotate(90)" >
        <g >
            <g >
                <g >
                    <rect width="53.188183" y="-309.26828" id="rect7153" gorn="0.111.0.0.0.0" height="58.536583" stroke-width="21.6802" fill="#9a916c"  x="563.80768" class="pad-left"/>
                </g>
            </g>
        </g>
    </g>
    <g transform="matrix(0,26.594092,-21.680216,0,302.41733,579.76412)" >
        <g >
            <g >
                <g >
                    <g id="g7157" gorn="0.112.0.0.0.0" style="opacity:0.5;" stroke-width="0.902899" fill="#000000"  class="3d">
                        <path id="path7155" gorn="0.112.0.0.0.0.0" stroke-width="0.902899"  d="M 4.234,0 H 0.299 c -0.166,0 -0.3,0.134 -0.3,0.3 v 1.668 c 0,0.166 0.134,0.3 0.3,0.3 h 3.934 c 0.167,0 0.301,-0.134 0.301,-0.3 V 0.3 C 4.534,0.134 4.401,0 4.234,0 Z"/>
                    </g>
                </g>
            </g>
        </g>
    </g>
    <g transform="rotate(90)" >
        <g >
            <g >
                <g >
                    <rect width="93.079323" y="-304.58536" id="rect7163" gorn="0.113.0.0.0.0" height="49.170727" stroke-width="21.6802" fill="#222222"  x="590.85388" class="color res"/>
                </g>
            </g>
        </g>
    </g>
    <path id="path7165" gorn="0.114" stroke-width="21.6802" fill="#bbbbbb"  d="m 304.58535,603.56583 v -18.48289 c 0,-4.41462 -2.90515,-7.97823 -6.50406,-7.97823 h -36.16261 c -3.59891,0 -6.50406,3.56361 -6.50406,7.97823 v 18.48289 c 7.71816,1.56905 15.91328,2.57963 24.58537,2.57963 8.67208,0 16.8672,-1.01058 24.58536,-2.57963 z"/>
    <path id="path7167" gorn="0.115" stroke-width="21.6802" fill="#bbbbbb"  d="m 261.91868,697.70892 h 36.16261 c 3.59891,0 6.50406,-3.56361 6.50406,-7.97823 V 671.2212 c -7.71816,-1.56905 -15.91328,-2.57963 -24.58536,-2.57963 -8.67209,0 -16.86721,1.01058 -24.58537,2.57963 v 18.4829 c 0,4.44121 2.90515,8.00482 6.50406,8.00482 z"/>
    <g transform="rotate(90)" >
        <g >
            <g >
                <g >
                    <rect width="53.188183" y="-418.53659" rx="20" id="rect7224" gorn="0.116.0.0.0.0" height="58.536583" stroke-width="21.6802" fill="#9a916c"  x="657.81781" class="pad-right"/>
                </g>
            </g>
        </g>
    </g>
    <g transform="rotate(90)" >
        <g >
            <g >
                <g >
                    <rect width="53.188183" y="-418.53659" rx="20" id="rect7226" gorn="0.117.0.0.0.0" height="58.536583" stroke-width="21.6802" fill="#9a916c"  x="563.80768" class="pad-left"/>
                </g>
            </g>
        </g>
    </g>
    <g transform="matrix(0,26.594092,-21.680216,0,411.68563,579.76412)" >
        <g >
            <g >
                <g >
                    <g id="g7230" gorn="0.118.0.0.0.0" style="opacity:0.5;" stroke-width="0.902899" fill="#000000"  class="3d">
                        <path id="path7228" gorn="0.118.0.0.0.0.0" stroke-width="0.902899"  d="M 4.234,0 H 0.299 c -0.166,0 -0.3,0.134 -0.3,0.3 v 1.668 c 0,0.166 0.134,0.3 0.3,0.3 h 3.934 c 0.167,0 0.301,-0.134 0.301,-0.3 V 0.3 C 4.534,0.134 4.401,0 4.234,0 Z"/>
                    </g>
                </g>
            </g>
        </g>
    </g>
    <g transform="rotate(90)" >
        <g >
            <g >
                <g >
                    <rect width="93.079323" y="-413.85364" id="rect7236" gorn="0.119.0.0.0.0" height="49.170727" stroke-width="21.6802" fill="#bb8866"  x="590.85388" class="color res"/>
                </g>
            </g>
        </g>
    </g>
    <path id="path7238" gorn="0.120" stroke-width="21.6802" fill="#bbbbbb"  d="m 413.85365,603.56583 v -18.48289 c 0,-4.41462 -2.90515,-7.97823 -6.50406,-7.97823 h -36.16261 c -3.59891,0 -6.50406,3.56361 -6.50406,7.97823 v 18.48289 c 7.71816,1.56905 15.91328,2.57963 24.58537,2.57963 8.67208,0 16.8672,-1.01058 24.58536,-2.57963 z"/>
    <path id="path7240" gorn="0.121" stroke-width="21.6802" fill="#bbbbbb"  d="m 371.18698,697.70892 h 36.16261 c 3.59891,0 6.50406,-3.56361 6.50406,-7.97823 V 671.2212 c -7.71816,-1.56905 -15.91328,-2.57963 -24.58536,-2.57963 -8.67209,0 -16.86721,1.01058 -24.58537,2.57963 v 18.4829 c 0,4.44121 2.90515,8.00482 6.50406,8.00482 z"/>
    <g transform="rotate(90)" >
        <g >
            <g >
                <g >
                    <rect width="53.188183" y="-523.53656" rx="20" id="rect7276" gorn="0.122.0.0.0.0" height="58.536583" stroke-width="21.6802" fill="#9a916c"  x="657.81781" class="pad-right"/>
                </g>
            </g>
        </g>
    </g>
    <g transform="rotate(90)" >
        <g >
            <g >
                <g >
                    <rect width="53.188183" y="-523.53656" rx="20" id="rect7278" gorn="0.123.0.0.0.0" height="58.536583" stroke-width="21.6802" fill="#9a916c"  x="563.80768" class="pad-left"/>
                </g>
            </g>
        </g>
    </g>
    <g transform="matrix(0,26.594092,-21.680216,0,516.68563,579.76412)" >
        <g >
            <g >
                <g >
                    <g id="g7282" gorn="0.124.0.0.0.0" style="opacity:0.5;" stroke-width="0.902899" fill="#000000"  class="3d">
                        <path id="path7280" gorn="0.124.0.0.0.0.0" stroke-width="0.902899"  d="M 4.234,0 H 0.299 c -0.166,0 -0.3,0.134 -0.3,0.3 v 1.668 c 0,0.166 0.134,0.3 0.3,0.3 h 3.934 c 0.167,0 0.301,-0.134 0.301,-0.3 V 0.3 C 4.534,0.134 4.401,0 4.234,0 Z"/>
                    </g>
                </g>
            </g>
        </g>
    </g>
    <g transform="rotate(90)" >
        <g >
            <g >
                <g >
                    <rect width="93.079323" y="-518.85364" id="rect7288" gorn="0.125.0.0.0.0" height="49.170727" stroke-width="21.6802" fill="#bb8866"  x="590.85388" class="color res"/>
                </g>
            </g>
        </g>
    </g>
    <path id="path7290" gorn="0.126" stroke-width="21.6802" fill="#bbbbbb"  d="m 518.85365,603.56583 v -18.48289 c 0,-4.41462 -2.90515,-7.97823 -6.50406,-7.97823 h -36.16261 c -3.59891,0 -6.50406,3.56361 -6.50406,7.97823 v 18.48289 c 7.71816,1.56905 15.91328,2.57963 24.58537,2.57963 8.67208,0 16.8672,-1.01058 24.58536,-2.57963 z"/>
    <path id="path7292" gorn="0.127" stroke-width="21.6802" fill="#bbbbbb"  d="m 476.18698,697.70892 h 36.16261 c 3.59891,0 6.50406,-3.56361 6.50406,-7.97823 V 671.2212 c -7.71816,-1.56905 -15.91328,-2.57963 -24.58536,-2.57963 -8.67209,0 -16.86721,1.01058 -24.58537,2.57963 v 18.4829 c 0,4.44121 2.90515,8.00482 6.50406,8.00482 z"/>
    <path id="path7302" stroke-opacity="1" gorn="0.128" style="stroke-linecap:butt;stroke-linejoin:miter;stroke-miterlimit:4;stroke-dasharray:none;" stroke="#ffffff" stroke-width="8" fill="none"  d="m 20.833332,631.00595 v -83.33333 h 95.833328 v 83.33333"/>
    <path id="path7304" stroke-opacity="1" gorn="0.129" style="stroke-linecap:butt;stroke-linejoin:miter;stroke-miterlimit:4;stroke-dasharray:none;" stroke="#ffffff" stroke-width="8" fill="none"  d="m 116.66666,643.75686 v 83.33333 H 20.83333 v -83.33333"/>
    <path id="path7310" stroke-opacity="1" gorn="0.130" style="stroke-linecap:butt;stroke-linejoin:miter;stroke-miterlimit:4;stroke-dasharray:none;" stroke="#ffffff" stroke-width="8" fill="none"  d="m 125.87453,631.00595 v -83.33333 h 95.83333 v 83.33333"/>
    <path id="path7312" stroke-opacity="1" gorn="0.131" style="stroke-linecap:butt;stroke-linejoin:miter;stroke-miterlimit:4;stroke-dasharray:none;" stroke="#ffffff" stroke-width="8" fill="none"  d="m 221.70786,643.75686 v 83.33333 h -95.83333 v -83.33333"/>
    <path id="path7316" stroke-opacity="1" gorn="0.132" style="stroke-linecap:butt;stroke-linejoin:miter;stroke-miterlimit:4;stroke-dasharray:none;" stroke="#ffffff" stroke-width="8" fill="none"  d="m 230.91577,631.00595 v -83.33333 h 95.83333 v 83.33333"/>
    <path id="path7318" stroke-opacity="1" gorn="0.133" style="stroke-linecap:butt;stroke-linejoin:miter;stroke-miterlimit:4;stroke-dasharray:none;" stroke="#ffffff" stroke-width="8" fill="none"  d="m 326.7491,643.75686 v 83.33333 h -95.83333 v -83.33333"/>
    <path id="path7336" stroke-opacity="1" gorn="0.134" style="stroke-linecap:butt;stroke-linejoin:miter;stroke-miterlimit:4;stroke-dasharray:none;" stroke="#ffffff" stroke-width="8" fill="none"  d="m 433.83331,631.00595 v -62.49999 c 0,0 0,-29.16667 -46.08334,-29.16667 -46.08334,0 -46.08334,29.16667 -46.08334,29.16667 v 62.49999"/>
    <path id="path7344" stroke-opacity="1" gorn="0.135" style="stroke-linecap:butt;stroke-linejoin:miter;stroke-miterlimit:4;stroke-dasharray:none;" stroke="#ffffff" stroke-width="8" fill="none"  d="m 434.16667,635.33931 v 62.49999 c 0,0 0,29.16667 -46.08334,29.16667 -46.08334,0 -46.08334,-29.16667 -46.08334,-29.16667 v -62.49999"/>
    <path id="path7350" stroke-opacity="1" gorn="0.136" style="stroke-linecap:butt;stroke-linejoin:miter;stroke-miterlimit:4;stroke-dasharray:none;" stroke="#ffffff" stroke-width="8" fill="none"  d="m 541.16667,631.00595 v -62.49999 c 0,0 0,-29.16667 -46.08334,-29.16667 -46.08334,0 -46.08334,29.16667 -46.08334,29.16667 v 62.49999"/>
    <path id="path7352" stroke-opacity="1" gorn="0.137" style="stroke-linecap:butt;stroke-linejoin:miter;stroke-miterlimit:4;stroke-dasharray:none;" stroke="#ffffff" stroke-width="8" fill="none"  d="m 541.50003,635.33931 v 62.49999 c 0,0 0,29.16667 -46.08334,29.16667 -46.08334,0 -46.08334,-29.16667 -46.08334,-29.16667 v -62.49999"/>
    <path id="path7465" stroke-opacity="1" gorn="0.138" style="stroke-linecap:butt;stroke-linejoin:miter;stroke-miterlimit:4;stroke-dasharray:none;" stroke="#203278" stroke-width="4" fill="none"  d="M 259.13485,767.48711 V 1042.4871 H 534.13483"/>
    <rect width="49.999985" y="1244.6923" id="rect7667" gorn="0.139" style="paint-order:stroke markers fill" stroke="none" height="110.29408" stroke-width="2.7849" fill="#c1c1c1"  x="62.416687" fill-opacity="1"/>
    <rect width="38.888874" y="1250.5746" id="rect7669" gorn="0.140" style="paint-order:stroke markers fill" stroke="none" height="98.529373" stroke-width="2.32137" fill="#ececec"  x="67.679733" fill-opacity="1"/>
    <rect width="38.888874" y="1278.9341" id="rect7671" gorn="0.141" style="paint-order:stroke markers fill" stroke="none" height="44.11763" stroke-width="2.68919" fill="#ffdd55"  x="67.691849" fill-opacity="1"/>
    <path id="path7673" gorn="0.142" stroke-width="14.7059" fill="#cccccc"  fill-opacity="1" d="m 62.416669,1244.6922 5.263087,5.8824 h 38.888814 l 5.84808,-5.8824 z"/>
    <path id="path7675" gorn="0.143" stroke-width="14.7059" fill="#cccccc"  fill-opacity="1" d="m 62.416669,1354.9863 5.263087,-5.8824 h 38.888814 l 5.84808,5.8824 z"/>
    <rect width="0.88235259" y="1250.5745" id="rect7677" gorn="0.144" style="opacity:0.25;paint-order:stroke markers fill" height="99.764839" stroke-width="3.89092" fill="#f6f6f6"  x="67.679733" fill-opacity="1"/>
    <rect width="0.88235259" y="1250.5746" id="rect7679" gorn="0.145" style="opacity:0.25;paint-order:stroke markers fill" height="98.529327" stroke-width="3.86676" fill="#9b9b9b"  x="105.68622" fill-opacity="1"/>
    <path id="path7699" stroke-opacity="1" gorn="0.146" style="stroke-linecap:butt;stroke-linejoin:miter;stroke-miterlimit:4;stroke-dasharray:none;" stroke="#ffffff" stroke-width="8" fill="none"  d="m 520.8333,1297.6726 v -62.5 c 0,0 0,-29.1667 -46.08334,-29.1667 -46.08334,0 -46.08334,29.1667 -46.08334,29.1667 v 62.5"/>
    <path id="path7701" stroke-opacity="1" gorn="0.147" style="stroke-linecap:butt;stroke-linejoin:miter;stroke-miterlimit:4;stroke-dasharray:none;" stroke="#ffffff" stroke-width="8" fill="none"  d="m 521.16666,1302.006 v 62.5 c 0,0 0,29.1666 -46.08334,29.1666 -46.08334,0 -46.08334,-29.1666 -46.08334,-29.1666 v -62.5"/>
    <path id="path7705" stroke-opacity="1" gorn="0.148" style="stroke-linecap:butt;stroke-linejoin:miter;stroke-miterlimit:4;stroke-dasharray:none;" stroke="#ffffff" stroke-width="8" fill="none"  d="m 133.33332,1297.6726 v -62.5 c 0,0 0,-29.1667 -46.08334,-29.1667 -46.08334,0 -46.08334,29.1667 -46.08334,29.1667 v 62.5"/>
    <path id="path7707" stroke-opacity="1" gorn="0.149" style="stroke-linecap:butt;stroke-linejoin:miter;stroke-miterlimit:4;stroke-dasharray:none;" stroke="#ffffff" stroke-width="8" fill="none"  d="m 133.66668,1302.006 v 62.5 c 0,0 0,29.1666 -46.08334,29.1666 C 41.5,1393.6726 41.5,1364.506 41.5,1364.506 v -62.5"/>
    <rect width="53.188183" y="1089.1107" id="rect13644" gorn="0.150" height="58.536583" stroke-width="21.6802" fill="#9a916c"  x="154.83723" class="pad-right"/>
    <rect width="53.188183" y="1089.1107" id="rect13646" gorn="0.151" height="58.536583" stroke-width="21.6802" fill="#9a916c"  x="60.827114" class="pad-left"/>
    <g transform="matrix(26.594092,0,0,21.680216,76.783569,1095.9616)" >
        <g >
            <g >
                <g >
                    <g id="g13650" gorn="0.152.0.0.0.0" style="opacity:0.5;" stroke-width="0.902899" fill="#000000"  class="3d">
                        <path id="path13648" gorn="0.152.0.0.0.0.0" stroke-width="0.902899"  d="M 4.234,0 H 0.299 c -0.166,0 -0.3,0.134 -0.3,0.3 v 1.668 c 0,0.166 0.134,0.3 0.3,0.3 h 3.934 c 0.167,0 0.301,-0.134 0.301,-0.3 V 0.3 C 4.534,0.134 4.401,0 4.234,0 Z"/>
                    </g>
                </g>
            </g>
        </g>
    </g>
    <rect width="93.079323" y="1093.7936" id="rect13656" gorn="0.153" height="49.170727" stroke-width="21.6802" fill="#222222"  x="87.873306" class="color res"/>
    <path id="path13658" gorn="0.154" stroke-width="21.6802" fill="#bbbbbb"  d="M 100.58528,1093.7936 H 82.102388 c -4.41462,0 -7.978228,2.9051 -7.978228,6.5041 v 36.1626 c 0,3.5989 3.563608,6.504 7.978228,6.504 h 18.482892 c 1.56905,-7.7181 2.57963,-15.9132 2.57963,-24.5853 0,-8.6721 -1.01058,-16.8672 -2.57963,-24.5854 z"/>
    <path id="path13660" gorn="0.155" stroke-width="21.6802" fill="#bbbbbb"  d="m 194.72837,1136.4603 v -36.1626 c 0,-3.599 -3.56361,-6.5041 -7.97823,-6.5041 h -18.50949 c -1.56905,7.7182 -2.57963,15.9133 -2.57963,24.5854 0,8.6721 1.01058,16.8672 2.57963,24.5853 h 18.4829 c 4.44121,0 8.00482,-2.9051 8.00482,-6.504 z"/>
    <path id="path13670" stroke-opacity="1" gorn="0.156" style="stroke-linecap:butt;stroke-linejoin:miter;stroke-miterlimit:4;stroke-dasharray:none;" stroke="#ffffff" stroke-width="7.83156" fill="none"  d="M 127.24911,1166.2956 H 43.91578 v -95.8333 h 83.33333"/>
    <path id="path13672" stroke-opacity="1" gorn="0.157" style="stroke-linecap:butt;stroke-linejoin:miter;stroke-miterlimit:4;stroke-dasharray:none;" stroke="#ffffff" stroke-width="7.83156" fill="none"  d="m 140.00002,1070.4623 h 83.33333 v 95.8333 h -83.33333"/>
    <rect width="53.188183" y="1089.1107" id="rect13676" gorn="0.158" height="58.536583" stroke-width="21.6802" fill="#9a916c"  x="454.83722" class="pad-right"/>
    <rect width="53.188183" y="1089.1107" id="rect13678" gorn="0.159" height="58.536583" stroke-width="21.6802" fill="#9a916c"  x="360.82712" class="pad-left"/>
    <g transform="matrix(26.594092,0,0,21.680216,376.78356,1095.9616)" >
        <g >
            <g >
                <g >
                    <g id="g13682" gorn="0.160.0.0.0.0" style="opacity:0.5;" stroke-width="0.902899" fill="#000000"  class="3d">
                        <path id="path13680" gorn="0.160.0.0.0.0.0" stroke-width="0.902899"  d="M 4.234,0 H 0.299 c -0.166,0 -0.3,0.134 -0.3,0.3 v 1.668 c 0,0.166 0.134,0.3 0.3,0.3 h 3.934 c 0.167,0 0.301,-0.134 0.301,-0.3 V 0.3 C 4.534,0.134 4.401,0 4.234,0 Z"/>
                    </g>
                </g>
            </g>
        </g>
    </g>
    <rect width="93.079323" y="1093.7936" id="rect13688" gorn="0.161" height="49.170727" stroke-width="21.6802" fill="#222222"  x="387.87329" class="color res"/>
    <path id="path13690" gorn="0.162" stroke-width="21.6802" fill="#bbbbbb"  d="m 400.58527,1093.7936 h -18.48289 c -4.41462,0 -7.97823,2.9051 -7.97823,6.5041 v 36.1626 c 0,3.5989 3.56361,6.504 7.97823,6.504 h 18.48289 c 1.56905,-7.7181 2.57963,-15.9132 2.57963,-24.5853 0,-8.6721 -1.01058,-16.8672 -2.57963,-24.5854 z"/>
    <path id="path13692" gorn="0.163" stroke-width="21.6802" fill="#bbbbbb"  d="m 494.72836,1136.4603 v -36.1626 c 0,-3.599 -3.56361,-6.5041 -7.97823,-6.5041 h -18.50949 c -1.56905,7.7182 -2.57963,15.9133 -2.57963,24.5854 0,8.6721 1.01058,16.8672 2.57963,24.5853 h 18.4829 c 4.44121,0 8.00482,-2.9051 8.00482,-6.504 z"/>
    <path id="path13702" stroke-opacity="1" gorn="0.164" style="stroke-linecap:butt;stroke-linejoin:miter;stroke-miterlimit:4;stroke-dasharray:none;" stroke="#ffffff" stroke-width="7.83156" fill="none"  d="m 427.24911,1166.2956 h -83.33333 v -95.8333 h 83.33333"/>
    <path id="path13704" stroke-opacity="1" gorn="0.165" style="stroke-linecap:butt;stroke-linejoin:miter;stroke-miterlimit:4;stroke-dasharray:none;" stroke="#ffffff" stroke-width="7.83156" fill="none"  d="m 440.00002,1070.4623 h 83.33333 v 95.8333 h -83.33333"/>
    <g transform="matrix(26.884063,0,0,26.884063,-63.462376,621.6852)" >
        <g >
            <g >
                <g >
                    <g id="g3991" gorn="0.166.0.0.0.0" >
                        <g id="g3993" gorn="0.166.0.0.0.0.0" stroke-width="0" >
                            <g transform="matrix(0.5,0,0,0.5,3.456,5.274)" >
                                <g >
                                    <g >
                                        <g >
                                            <g id="g471" gorn="0.166.0.0.0.0.0.0.0.0.0.0" >
                                                <g id="g25956" gorn="0.166.0.0.0.0.0.0.0.0.0.0.0" >
                                                    <g id="g25954" gorn="0.166.0.0.0.0.0.0.0.0.0.0.0.0" >
                                                        <g id="g25952" gorn="0.166.0.0.0.0.0.0.0.0.0.0.0.0.0" >
                                                            <g id="g25950" gorn="0.166.0.0.0.0.0.0.0.0.0.0.0.0.0.0" >
                                                                <g id="g25948" gorn="0.166.0.0.0.0.0.0.0.0.0.0.0.0.0.0.0" >
                                                                    <g id="g25946" gorn="0.166.0.0.0.0.0.0.0.0.0.0.0.0.0.0.0.0" >
                                                                        <g id="g3995" gorn="0.166.0.0.0.0.0.0.0.0.0.0.0.0.0.0.0.0.0" >
                                                                            <g id="g3997" gorn="0.166.0.0.0.0.0.0.0.0.0.0.0.0.0.0.0.0.0.0" stroke-width="0" >
                                                                                <rect width="1.728" y="14.832" id="rect3999" gorn="0.166.0.0.0.0.0.0.0.0.0.0.0.0.0.0.0.0.0.0.0" stroke="none" height="6.2639999" stroke-width="0" fill="#8c8c8c"  x="0.648"/>
                                                                                <rect width="1.728" y="14.832" id="rect4001" gorn="0.166.0.0.0.0.0.0.0.0.0.0.0.0.0.0.0.0.0.0.1" stroke="none" height="6.2639999" stroke-width="0" fill="#8c8c8c"  x="4.2480001"/>
                                                                                <rect width="1.728" y="14.832" id="rect4003" gorn="0.166.0.0.0.0.0.0.0.0.0.0.0.0.0.0.0.0.0.0.2" stroke="none" height="6.2639999" stroke-width="0" fill="#8c8c8c"  x="7.848"/>
                                                                                <rect width="1.728" y="14.832" id="rect4005" gorn="0.166.0.0.0.0.0.0.0.0.0.0.0.0.0.0.0.0.0.0.3" stroke="none" height="6.2639999" stroke-width="0" fill="#8c8c8c"  x="11.448"/>
                                                                                <rect width="1.728" y="0" id="rect4007" gorn="0.166.0.0.0.0.0.0.0.0.0.0.0.0.0.0.0.0.0.0.4" stroke="none" height="6.2639999" stroke-width="0" fill="#8c8c8c"  x="11.448"/>
                                                                                <rect width="1.728" y="0" id="rect4009" gorn="0.166.0.0.0.0.0.0.0.0.0.0.0.0.0.0.0.0.0.0.5" stroke="none" height="6.2639999" stroke-width="0" fill="#8c8c8c"  x="7.848"/>
                                                                                <rect width="1.728" y="0" id="rect4011" gorn="0.166.0.0.0.0.0.0.0.0.0.0.0.0.0.0.0.0.0.0.6" stroke="none" height="6.2639999" stroke-width="0" fill="#8c8c8c"  x="4.2480001"/>
                                                                                <rect width="1.728" y="0" id="rect4013" gorn="0.166.0.0.0.0.0.0.0.0.0.0.0.0.0.0.0.0.0.0.7" stroke="none" height="6.2639999" stroke-width="0" fill="#8c8c8c"  x="0.648"/>
                                                                                <rect width="13.3908" y="5.43713" id="rect4015" gorn="0.166.0.0.0.0.0.0.0.0.0.0.0.0.0.0.0.0.0.0.8" stroke="none" height="10.2218" stroke-width="0" fill="#303030"  x="0.21656699"/>
                                                                                <polygon id="polygon4017" gorn="0.166.0.0.0.0.0.0.0.0.0.0.0.0.0.0.0.0.0.0.9" stroke-width="0" fill="#1f1f1f"  points="13.6074,5.43713 12.8874,6.15713 0.936569,6.15713 0.216567,5.43713 "/>
                                                                                <polygon id="polygon4019" gorn="0.166.0.0.0.0.0.0.0.0.0.0.0.0.0.0.0.0.0.0.10" stroke-width="0" fill="#1f1f1f"  points="13.6074,15.6588 12.8874,14.9388 0.936569,14.9388 0.216567,15.6588 "/>
                                                                                <polygon id="polygon4021" gorn="0.166.0.0.0.0.0.0.0.0.0.0.0.0.0.0.0.0.0.0.11" stroke-width="0" fill="#000000"  points="0.216567,15.6588 0.936569,14.9388 0.936569,6.15713 0.216567,5.43713 "/>
                                                                                <polygon id="polygon4023" gorn="0.166.0.0.0.0.0.0.0.0.0.0.0.0.0.0.0.0.0.0.12" stroke-width="0" fill="#3d3d3d"  points="13.6074,15.6588 12.8874,14.9388 12.8874,6.15713 13.6074,5.43713 "/>
                                                                                <circle id="circle4025" gorn="0.166.0.0.0.0.0.0.0.0.0.0.0.0.0.0.0.0.0.0.13" stroke="none" cx="2.37657" stroke-width="0" fill="#1f1f1f"  r="0.72000003" cy="13.4988"/>
                                                                            </g>
                                                                        </g>
                                                                    </g>
                                                                </g>
                                                            </g>
                                                        </g>
                                                    </g>
                                                </g>
                                            </g>
                                        </g>
                                    </g>
                                </g>
                            </g>
                        </g>
                    </g>
                </g>
            </g>
        </g>
    </g>
    <rect width="93.123207" y="378.88275" id="rect27020" stroke-opacity="1" gorn="0.167" style="stroke-linecap:butt;stroke-linejoin:miter;stroke-miterlimit:4;stroke-dasharray:none;paint-order:normal" stroke="#ffffff" height="93.123207" stroke-width="8" fill="none"  x="313" fill-opacity="1"/>
    <rect width="93.123207" y="378.88275" id="rect27022" stroke-opacity="1" gorn="0.168" style="stroke-linecap:butt;stroke-linejoin:miter;stroke-miterlimit:4;stroke-dasharray:none;paint-order:normal" stroke="#ffffff" height="93.123207" stroke-width="8" fill="none"  x="406" fill-opacity="1"/>
    <g id="pins" gorn="0.169" >
        <g transform="scale(-1)" >
            <g >
                <g >
                    <g >
                        <rect width="16.418655" y="-1557.2488" id="connector0pin" gorn="0.169.0.0.0.0.0" height="16.4189" stroke-width="0.0999993" fill="#8c8663"  x="-136.61955"/>
                    </g>
                </g>
            </g>
        </g>
        <g transform="scale(-1)" >
            <g >
                <g >
                    <g >
                        <rect width="16.418655" y="-1557.2487" id="connector1pin" gorn="0.169.1.0.0.0.0" height="16.4189" stroke-width="0.0999993" fill="#8c8663"  x="-236.14725"/>
                    </g>
                </g>
            </g>
        </g>
        <g transform="scale(-1)" >
            <g >
                <g >
                    <g >
                        <rect width="16.418655" y="-1557.2487" id="connector2pin" gorn="0.169.2.0.0.0.0" height="16.4189" stroke-width="0.0999993" fill="#8c8663"  x="-336.31677"/>
                    </g>
                </g>
            </g>
        </g>
        <g transform="scale(-1)" >
            <g >
                <g >
                    <g >
                        <rect width="16.418655" y="-1557.0078" id="connector3pin" gorn="0.169.3.0.0.0.0" height="16.4189" stroke-width="0.0999993" fill="#8c8663"  x="-436.31525"/>
                    </g>
                </g>
            </g>
        </g>
    </g>
</svg>
