<?xml version='1.0' encoding='utf-8'?>
<!-- Generator: Adobe Illustrator 28.1.0, SVG Export Plug-In . SVG Version: 6.00 Build 0)  -->
<svg xmlns="http://www.w3.org/2000/svg" baseProfile="tiny" gorn="0" height="1.29444in" id="svg8" overflow="visible" version="1.2" viewBox="0 0 193.5 93.2" width="2.6875in" x="0px" xml:space="preserve"  xmlns:xml="http://www.w3.org/XML/1998/namespace" y="0px">
    <desc >
        <referenceFile >gear-motor_2_magnet_breadboard.svg</referenceFile>
    </desc>
    <g gorn="0.1" id="breadboard" >
        <rect fill="#E6E6E6" gorn="0.1.0" height="93.2" id="rect1137" width="11" x="149.8" />
        <rect fill="#FFD42A" gorn="0.1.1" height="54.9" id="rect1133" width="100.8" x="81.8"  y="19.1"/>
        <rect fill="#FFD42A" gorn="0.1.2" height="8.3" id="rect1135" width="15.5" x="177.9"  y="42.4"/>
        <path d="M2,31.4h9.2c1.1,0,2,0.9,2,2v26.4c0,1.1-0.9,2-2,2H2c-1.1,0-2-0.9-2-2V33.4   C0,32.3,0.9,31.4,2,31.4z" fill="#4D4D4D" gorn="0.1.3" id="rect1159" />
        <path d="M7.4,24.7h7.4c1.6,0,2.9,1.3,2.9,2.9v38c0,1.6-1.3,2.9-2.9,2.9H7.4c-1.6,0-2.9-1.3-2.9-2.9   v-38C4.5,26,5.8,24.7,7.4,24.7z" fill="#4D4D4D" gorn="0.1.4" id="rect1157" />
        <path d="   M59.2,21.1l2-1.9h1.6" fill="none" gorn="0.1.5" id="path1151" stroke="#FFCC00" stroke-linecap="round" stroke-miterlimit="10" stroke-width="0.565" />
        <path d="   M59.2,72.1l2,1.9h1.6" fill="none" gorn="0.1.6" id="path1153" stroke="#FFCC00" stroke-linecap="round" stroke-miterlimit="10" stroke-width="0.565" />
        <rect fill="#FFD42A" gorn="0.1.7" height="51.7" id="rect1139" width="30.8" x="51.3"  y="20.8"/>
        <rect fill="#D4AA00" gorn="0.1.8" height="51.2" id="rect1143" stroke="#D4AA00" stroke-linecap="square" stroke-miterlimit="10" stroke-width="0.1712" width="2.3" x="79.3"  y="21.1"/>
        <rect fill="#CCCCCC" gorn="0.1.9" height="46.7" id="rect1155" width="38.1" x="13.2"  y="23.3"/>
        <g transform="matrix(1 0 0 1 51 46.2145)" >
            <g >
                <image height="1" id="path1141" width="143" xlink:href="B697CBC28D0FCE2A.png"  xmlns:xlink="http://www.w3.org/1999/xlink"/>
            </g>
        </g>
        <path d="M8.6,18L8.6,18c1.1,0,1.9,0.9,1.9,1.9v6c0,1.1-0.9,1.9-1.9,1.9l0,0c-1.1,0-1.9-0.9-1.9-1.9   v-6C6.7,18.9,7.5,18,8.6,18z" fill="#DEAA87" gorn="0.1.11" id="rect1170" />
        <path d="M8.6,21.1L8.6,21.1c0.4,0,0.7,0.3,0.7,0.7V24c0,0.4-0.3,0.7-0.7,0.7l0,0   c-0.4,0-0.7-0.3-0.7-0.7v-2.2C7.9,21.4,8.2,21.1,8.6,21.1z" fill="#FFFFFF" gorn="0.1.12" id="rect1172" />
        <path d="M8.6,65.4L8.6,65.4c1.1,0,1.9,0.9,1.9,1.9v6c0,1.1-0.9,1.9-1.9,1.9l0,0   c-1.1,0-1.9-0.9-1.9-1.9v-6C6.7,66.3,7.5,65.4,8.6,65.4z" fill="#DEAA87" gorn="0.1.13" id="rect1180" />
        <path d="M8.6,68.6L8.6,68.6c0.4,0,0.7,0.3,0.7,0.7v2.2c0,0.4-0.3,0.7-0.7,0.7l0,0   c-0.4,0-0.7-0.3-0.7-0.7v-2.2C7.9,68.9,8.2,68.6,8.6,68.6z" fill="#FFFFFF" gorn="0.1.14" id="rect1182" />
        <rect fill="#E6E6E6" gorn="0.1.15" height="0.8" id="connector0pin" width="0.7" x="8.2"  y="20.5"/>
        <rect fill="#E6E6E6" gorn="0.1.16" height="0.8" id="connector1pin" width="0.7" x="8.2"  y="70.9"/>
        <path d="M29,62.5v-1.3c0-0.2,0.1-0.3,0.2-0.5s0.2-0.3,0.4-0.4l1.3-0.6c0.2-0.1,0.5-0.2,0.7-0.2c0.2,0,0.5,0.1,0.7,0.2   l1.3,0.7c0.2,0.1,0.3,0.2,0.4,0.4c0.1,0.2,0.2,0.3,0.2,0.5v1.3c0,0.1,0,0.2-0.1,0.2c-0.1,0.1-0.1,0.1-0.2,0.1c-0.1,0-0.2,0-0.2-0.1   c-0.1-0.1-0.1-0.1-0.1-0.2v-0.3h-3.9v0.3c0,0.1,0,0.2-0.1,0.2c-0.1,0.1-0.1,0.1-0.2,0.1c-0.1,0-0.2,0-0.2-0.1   C29,62.6,29,62.6,29,62.5z M29.7,61.5h3.9l0-0.2c0-0.1-0.1-0.3-0.2-0.3L32,60.3c-0.2-0.1-0.3-0.1-0.4-0.1c-0.1,0-0.3,0-0.4,0.1   l-1.3,0.7c-0.1,0.1-0.2,0.2-0.2,0.3L29.7,61.5L29.7,61.5z" gorn="0.1.17" id="path31" />
        <path d="M33.5,56.2V55c0-0.1,0-0.2,0.1-0.2c0.1-0.1,0.1-0.1,0.2-0.1s0.2,0,0.2,0.1c0.1,0.1,0.1,0.1,0.1,0.2v1.2   c0,0.2,0,0.3-0.1,0.5c-0.1,0.2-0.2,0.3-0.3,0.3l-1.5,0.8c-0.2,0.1-0.4,0.2-0.6,0.2c-0.2,0-0.5,0-0.6-0.1L29.5,57   c-0.1-0.1-0.3-0.2-0.4-0.3C29,56.5,29,56.4,29,56.3V55c0-0.1,0-0.2,0.1-0.2c0.1-0.1,0.1-0.1,0.2-0.1c0.1,0,0.2,0,0.2,0.1   c0.1,0.1,0.1,0.1,0.1,0.2v1.2c0,0.1,0.1,0.2,0.2,0.3l1.4,0.7c0.1,0.1,0.2,0.1,0.4,0.1c0.2,0,0.3,0,0.4-0.1l1.3-0.7   C33.5,56.4,33.5,56.3,33.5,56.2z" gorn="0.1.18" id="path33" />
        <path d="M29.6,45h1.2c0.3,0,0.5,0.1,0.7,0.3c0.2-0.2,0.4-0.3,0.7-0.3h1.3c0.2,0,0.3,0.1,0.5,0.2   c0.1,0.1,0.2,0.3,0.2,0.5V48c0,0.1,0,0.2-0.1,0.2c-0.1,0.1-0.1,0.1-0.2,0.1c-0.1,0-0.2,0-0.2-0.1c-0.1-0.1-0.1-0.1-0.1-0.2v-2.3   h-1.3c-0.1,0-0.2,0-0.2,0.1c-0.1,0.1-0.1,0.1-0.1,0.2v1.3c0,0.1,0,0.2-0.1,0.2c-0.1,0.1-0.1,0.1-0.2,0.1c-0.1,0-0.2,0-0.2-0.1   c-0.1-0.1-0.1-0.1-0.1-0.2V46c0-0.1,0-0.2-0.1-0.2c-0.1-0.1-0.1-0.1-0.2-0.1h-1.3V48c0,0.1,0,0.2-0.1,0.2c-0.1,0.1-0.1,0.1-0.2,0.1   s-0.2,0-0.2-0.1C29,48.2,29,48.1,29,48v-2.3c0-0.2,0.1-0.3,0.2-0.5S29.5,45,29.6,45z" gorn="0.1.19" id="path35" />
        <path d="M31.6,40.2h0.3c0.1,0,0.2,0,0.2,0.1c0.1,0.1,0.1,0.1,0.1,0.2v2.6c0,0.1,0,0.2-0.1,0.2   c-0.1,0.1-0.1,0.1-0.2,0.1h-0.3c-0.1,0-0.2,0-0.2-0.1s-0.1-0.1-0.1-0.2v-2.6c0-0.1,0-0.2,0.1-0.2S31.5,40.2,31.6,40.2z" gorn="0.1.20" id="path37" />
        <path d="M29,38.3V38c0-0.1,0-0.2,0.1-0.2c0.1-0.1,0.1-0.1,0.2-0.1c0.1,0,0.2,0,0.2,0.1c0.1,0.1,0.1,0.1,0.1,0.2h2.2   v-2.3c0-0.1,0-0.2,0.1-0.2s0.1-0.1,0.2-0.1h1.7c0.1,0,0.2,0,0.2,0.1s0.1,0.1,0.1,0.2v2.6c0,0.1,0,0.2-0.1,0.2   c-0.1,0.1-0.1,0.1-0.2,0.1h-4.5c-0.1,0-0.2,0-0.2-0.1C29,38.5,29,38.4,29,38.3z M32.5,38h1v-2h-1V38z" gorn="0.1.21" id="path39" />
        <path d="M29.3,30.5h1.2l3.4,1.3c0.2,0.1,0.2,0.2,0.2,0.3c0,0.2-0.1,0.3-0.2,0.3l-3.4,1.3h-1.2c-0.1,0-0.2,0-0.2-0.1   C29,33.6,29,33.6,29,33.5c0-0.1,0-0.2,0.1-0.2s0.1-0.1,0.2-0.1h1.1l2.5-1l-2.5-1h-1.1c-0.1,0-0.2,0-0.2-0.1C29,31,29,30.9,29,30.8   s0-0.2,0.1-0.2C29.2,30.5,29.2,30.5,29.3,30.5z" gorn="0.1.22" id="path41" />
    </g>
    <g gorn="0.2" id="Magnet" >
        <g gorn="0.2.0" id="Layer_3" >
            <rect height="3" stroke="#000000" stroke-miterlimit="10" stroke-width="1" width="12.1" x="149.2"  y="2"/>
        </g>
        <rect height="3" stroke="#000000" stroke-miterlimit="10" stroke-width="1" width="30.2" x="139.3"  y="0.5"/>
        <g gorn="0.2.2" id="Layer_4" >
            <rect fill="#AEDCCC" height="1.5" width="31.2" x="138.8" />
        </g>
    </g>
</svg>
