<?xml version='1.0' encoding='UTF-8' standalone='no'?>
<svg
  xmlns="http://www.w3.org/2000/svg"
  xmlns:svg="http://www.w3.org/2000/svg"
  xmlns:rdf="http://www.w3.org/1999/02/22-rdf-syntax-ns#"
  xmlns:cc="http://creativecommons.org/ns#"
  xmlns:dc="http://purl.org/dc/elements/1.1/"
  shape-rendering="crispEdges"
  viewBox="0 0 2037.8587 1749.0153"
  x="0in"
  width="2.0378587in"
  height="1.7490153in"
  version="1.2"
  y="0in"
  id="svg2">
  <metadata
    id="metadata27">
    <rdf:RDF>
      <cc:Work
        rdf:about="">
        <dc:format>image/svg+xml</dc:format>
        <dc:type
          rdf:resource="http://purl.org/dc/dcmitype/StillImage"
        />
      </cc:Work>
    </rdf:RDF>
  </metadata>
  <defs
    id="defs25"
  />
  <desc
    id="desc4">
    <referenceFile>HuskyLens-Vision-Sensor_1_pcb.svg</referenceFile>
  </desc>
  <g
    id="silkscreen">
    <path
      id="upper"
      d="m 48.735299,5.000233 1943.204501,5.5354 c 21.7206,1.2492 38.3409,11.6348 40.9187,38.2556 l -0.4833,1318.216067 c 0.1041,37.8472 -26.8114,59.9752 -49.9046,55.86 0,0 -268.0876,2.3493 -279.9757,2.4455 -108.8686,0.8813 -190.6278,-3.7659 -222.8545,178.6127 -16.9896,96.1484 -62.3815,143.5394 -107.9441,139.8968 H 692.6024 c -85.5542,-11.0595 -94.5976,-82.8776 -92.62,-163.4476 3.8407,-79.7889 -74.1896,-156.5646 -153.9674,-155.5504 l -411.292601,-6.419 C 5.8836988,1420.4088 3.3937988,1393.2215 5.6802988,1368.9642 V 32.303933 C 16.684899,12.593633 24.686499,5.787133 48.735299,5.000233 Z"
      fill="none"
      stroke="#000000"
      stroke-width="10"
    />
    <circle
      id="path4155"
      cx="722.45538"
      cy="1615.6824"
      r="80"
      fill="#000000"
      stroke="none"
      stroke-width="0"
    />
    <circle
      id="circle5263"
      cx="1348.4576"
      cy="1615.6824"
      r="80"
      fill="#000000"
      stroke="none"
      stroke-width="0"
    />
  </g>
  <g
    id="copper1">
    <g
      id="copper0">
      <rect
        stroke-width="20"
        stroke="#ffbf00"
        fill="none"
        id="square"
        gorn="0.2.0.0"
        x="115.35944"
        height="58"
        width="58"
        y="1616.5863"
      />
      <circle
        stroke-width="20"
        stroke="#ffbf00"
        fill="none"
        id="connector0pin"
        gorn="0.2.0.1"
        cx="144.35944"
        cy="1645.5863"
        r="29"
      />
      <circle
        stroke-width="20"
        stroke="#ffbf00"
        fill="none"
        id="connector1pin"
        gorn="0.2.0.2"
        cx="244.29669"
        cy="1645.6255"
        r="29"
      />
      <circle
        stroke-width="20"
        stroke="#ffbf00"
        fill="none"
        id="connector2pin"
        gorn="0.2.0.3"
        cx="344.29669"
        cy="1645.6255"
        r="29"
      />
      <circle
        stroke-width="20"
        stroke="#ffbf00"
        fill="none"
        id="connector3pin"
        gorn="0.2.0.3"
        cx="444.29669"
        cy="1645.6255"
        r="29"
      />
    </g>
  </g>
</svg>
